<?xml version="1.0" encoding="utf-8"?>
<!-- Generator: Adobe Illustrator 17.0.0, SVG Export Plug-In . SVG Version: 6.00 Build 0)  -->
<!DOCTYPE svg PUBLIC "-//W3C//DTD SVG 1.1//EN" "http://www.w3.org/Graphics/SVG/1.1/DTD/svg11.dtd">
<svg version="1.1" id="Layer_1" xmlns="http://www.w3.org/2000/svg" xmlns:xlink="http://www.w3.org/1999/xlink" x="0px" y="0px"
	 width="343.087px" height="168.005px" viewBox="0 0 343.087 168.005" enable-background="new 0 0 343.087 168.005"
	 xml:space="preserve">
<rect x="-110.902" y="266.755" fill="#00A22E" width="35.445" height="35.445"/>
<rect x="89.097" y="266.755" fill="#FFD424" width="35.445" height="35.445"/>
<g>
	<path d="M-53.516,271.658h-0.719v-7.064h2.175c0.719,0,1.286,0.156,1.701,0.469c0.416,0.313,0.624,0.785,0.624,1.417
		c0,0.492-0.154,0.906-0.464,1.242s-0.757,0.53-1.342,0.584l2.035,3.353h-0.878l-1.936-3.283h-1.197V271.658z M-53.516,267.716
		h1.276c0.319,0,0.591-0.033,0.813-0.1s0.4-0.154,0.534-0.265c0.133-0.109,0.229-0.239,0.289-0.389c0.06-0.15,0.09-0.312,0.09-0.484
		c0-0.166-0.03-0.324-0.09-0.474s-0.156-0.281-0.289-0.395c-0.134-0.113-0.312-0.201-0.534-0.265
		c-0.223-0.063-0.494-0.095-0.813-0.095h-1.276V267.716z"/>
	<path d="M-46.651,267.477c0,0.14-0.05,0.265-0.149,0.374s-0.229,0.165-0.39,0.165c-0.159,0-0.289-0.056-0.389-0.165
		s-0.15-0.234-0.15-0.374s0.051-0.265,0.15-0.374c0.1-0.11,0.229-0.165,0.389-0.165c0.16,0,0.29,0.055,0.39,0.165
		C-46.701,267.212-46.651,267.337-46.651,267.477z M-46.651,271.179c0,0.14-0.05,0.264-0.149,0.374
		c-0.1,0.109-0.229,0.164-0.39,0.164c-0.159,0-0.289-0.055-0.389-0.164c-0.1-0.11-0.15-0.234-0.15-0.374s0.051-0.265,0.15-0.375
		c0.1-0.109,0.229-0.164,0.389-0.164c0.16,0,0.29,0.055,0.39,0.164C-46.701,270.915-46.651,271.04-46.651,271.179z"/>
	<path d="M-42.346,264.473c0.506,0,0.915,0.117,1.228,0.35c0.313,0.233,0.556,0.529,0.729,0.888c0.173,0.359,0.289,0.754,0.35,1.183
		c0.06,0.429,0.09,0.84,0.09,1.232s-0.03,0.804-0.09,1.232c-0.061,0.429-0.177,0.823-0.35,1.183
		c-0.173,0.358-0.416,0.655-0.729,0.888s-0.722,0.35-1.228,0.35c-0.505,0-0.914-0.117-1.227-0.35
		c-0.313-0.232-0.556-0.529-0.729-0.888c-0.173-0.359-0.289-0.754-0.35-1.183c-0.06-0.429-0.09-0.84-0.09-1.232
		s0.03-0.804,0.09-1.232c0.061-0.429,0.177-0.823,0.35-1.183c0.173-0.358,0.415-0.654,0.729-0.888
		C-43.26,264.59-42.851,264.473-42.346,264.473z M-42.346,265.132c-0.386,0-0.689,0.103-0.912,0.309
		c-0.224,0.207-0.392,0.463-0.504,0.769c-0.113,0.307-0.185,0.632-0.215,0.979c-0.03,0.346-0.045,0.658-0.045,0.938
		s0.015,0.592,0.045,0.938c0.03,0.347,0.102,0.673,0.215,0.979c0.112,0.306,0.28,0.562,0.504,0.769
		c0.223,0.206,0.526,0.309,0.912,0.309s0.69-0.103,0.913-0.309c0.224-0.207,0.391-0.463,0.504-0.769s0.185-0.632,0.215-0.979
		c0.03-0.346,0.045-0.658,0.045-0.938s-0.015-0.592-0.045-0.938c-0.03-0.347-0.102-0.672-0.215-0.979
		c-0.113-0.306-0.28-0.562-0.504-0.769C-41.655,265.235-41.96,265.132-42.346,265.132z"/>
	<path d="M-29.224,265.89c-0.24-0.253-0.526-0.452-0.858-0.599c-0.333-0.146-0.719-0.22-1.157-0.22c-0.453,0-0.858,0.084-1.218,0.25
		s-0.663,0.389-0.913,0.668c-0.249,0.28-0.44,0.604-0.573,0.974c-0.134,0.369-0.2,0.757-0.2,1.162c0,0.406,0.066,0.793,0.2,1.162
		c0.133,0.369,0.324,0.693,0.573,0.974c0.25,0.279,0.554,0.502,0.913,0.668s0.765,0.25,1.218,0.25c0.365,0,0.717-0.045,1.053-0.135
		s0.637-0.212,0.902-0.364v-2.365h-1.686v-0.658h2.404v3.462c-0.399,0.233-0.837,0.411-1.313,0.534s-0.93,0.185-1.361,0.185
		c-0.525,0-1.013-0.094-1.462-0.279c-0.449-0.187-0.838-0.444-1.168-0.773c-0.329-0.329-0.587-0.72-0.772-1.173
		c-0.187-0.452-0.28-0.947-0.28-1.486s0.094-1.034,0.28-1.486c0.186-0.453,0.443-0.844,0.772-1.173
		c0.33-0.329,0.719-0.587,1.168-0.773c0.449-0.186,0.937-0.279,1.462-0.279c0.565,0,1.053,0.078,1.462,0.234
		c0.408,0.156,0.772,0.395,1.092,0.714L-29.224,265.89z"/>
	<path d="M-25.192,267.477c0,0.14-0.05,0.265-0.149,0.374s-0.229,0.165-0.39,0.165c-0.159,0-0.289-0.056-0.389-0.165
		s-0.15-0.234-0.15-0.374s0.051-0.265,0.15-0.374c0.1-0.11,0.229-0.165,0.389-0.165c0.16,0,0.29,0.055,0.39,0.165
		C-25.242,267.212-25.192,267.337-25.192,267.477z M-25.192,271.179c0,0.14-0.05,0.264-0.149,0.374
		c-0.1,0.109-0.229,0.164-0.39,0.164c-0.159,0-0.289-0.055-0.389-0.164c-0.1-0.11-0.15-0.234-0.15-0.374s0.051-0.265,0.15-0.375
		c0.1-0.109,0.229-0.164,0.389-0.164c0.16,0,0.29,0.055,0.39,0.164C-25.242,270.915-25.192,271.04-25.192,271.179z"/>
	<path d="M-20.948,271.658h-0.719v-6.166l-1.268,1.117l-0.448-0.539l1.796-1.477h0.639V271.658z"/>
	<path d="M-14.151,265.251l-2.844,6.406h-0.809l2.904-6.406h-3.442v-0.658h4.19V265.251z"/>
	<path d="M-8.325,265.251h-2.884l-0.05,2.126c0.153-0.061,0.31-0.104,0.469-0.13c0.16-0.026,0.319-0.04,0.479-0.04
		c0.332,0,0.635,0.057,0.908,0.17c0.272,0.113,0.507,0.271,0.703,0.474s0.35,0.442,0.459,0.719c0.109,0.275,0.165,0.577,0.165,0.902
		c0,0.34-0.061,0.65-0.18,0.934c-0.12,0.282-0.286,0.525-0.499,0.729c-0.213,0.202-0.464,0.36-0.754,0.474
		c-0.289,0.113-0.604,0.17-0.942,0.17c-0.446,0-0.849-0.106-1.208-0.319c-0.358-0.213-0.635-0.525-0.828-0.938l0.719-0.31
		c0.133,0.28,0.318,0.501,0.557,0.664c0.239,0.163,0.514,0.244,0.826,0.244c0.225,0,0.434-0.041,0.626-0.124
		c0.192-0.084,0.359-0.195,0.502-0.335s0.256-0.306,0.339-0.499c0.082-0.192,0.124-0.398,0.124-0.618
		c0-0.246-0.043-0.473-0.13-0.679s-0.206-0.384-0.359-0.534c-0.153-0.149-0.336-0.264-0.549-0.344s-0.445-0.12-0.698-0.12
		s-0.504,0.035-0.753,0.105c-0.25,0.069-0.487,0.164-0.714,0.284l0.07-3.662h3.602V265.251z"/>
	<path d="M-2.288,264.593h2.105c0.292,0,0.575,0.03,0.848,0.09s0.516,0.159,0.729,0.299c0.213,0.141,0.383,0.323,0.509,0.549
		c0.127,0.227,0.189,0.506,0.189,0.839c0,0.386-0.107,0.717-0.324,0.992c-0.216,0.276-0.523,0.461-0.923,0.554v0.021
		c0.499,0.04,0.89,0.215,1.173,0.523c0.282,0.31,0.424,0.724,0.424,1.242c0,0.113-0.028,0.279-0.085,0.499s-0.175,0.438-0.354,0.653
		c-0.179,0.217-0.438,0.404-0.778,0.564c-0.339,0.159-0.791,0.239-1.356,0.239h-2.155V264.593z M-1.569,267.686h1.446
		c0.173,0,0.345-0.021,0.514-0.064c0.17-0.043,0.323-0.114,0.459-0.215c0.137-0.1,0.248-0.228,0.335-0.384
		c0.086-0.156,0.129-0.348,0.129-0.574c0-0.072-0.015-0.176-0.045-0.309c-0.029-0.133-0.096-0.267-0.199-0.399
		s-0.254-0.248-0.454-0.344c-0.199-0.097-0.469-0.146-0.808-0.146h-1.377V267.686z M-1.569,270.999h1.377
		c0.259,0,0.502-0.026,0.728-0.08c0.227-0.054,0.423-0.135,0.589-0.244c0.166-0.11,0.298-0.248,0.395-0.414
		c0.097-0.167,0.145-0.366,0.145-0.6c0-0.465-0.149-0.811-0.449-1.037c-0.299-0.227-0.738-0.34-1.316-0.34h-1.467V270.999z"/>
	<path d="M5.437,267.477c0,0.14-0.05,0.265-0.149,0.374s-0.229,0.165-0.39,0.165c-0.159,0-0.289-0.056-0.389-0.165
		s-0.15-0.234-0.15-0.374s0.051-0.265,0.15-0.374c0.1-0.11,0.229-0.165,0.389-0.165c0.16,0,0.29,0.055,0.39,0.165
		C5.387,267.212,5.437,267.337,5.437,267.477z M5.437,271.179c0,0.14-0.05,0.264-0.149,0.374c-0.1,0.109-0.229,0.164-0.39,0.164
		c-0.159,0-0.289-0.055-0.389-0.164c-0.1-0.11-0.15-0.234-0.15-0.374s0.051-0.265,0.15-0.375c0.1-0.109,0.229-0.164,0.389-0.164
		c0.16,0,0.29,0.055,0.39,0.164C5.387,270.915,5.437,271.04,5.437,271.179z"/>
	<path d="M8.753,267.626l0.02,0.021c0.113-0.08,0.265-0.14,0.454-0.18s0.364-0.061,0.524-0.061c0.306,0,0.59,0.056,0.853,0.165
		s0.49,0.261,0.684,0.454c0.193,0.192,0.345,0.422,0.454,0.688c0.109,0.266,0.165,0.559,0.165,0.878c0,0.326-0.057,0.622-0.17,0.888
		c-0.113,0.267-0.273,0.496-0.479,0.688c-0.206,0.193-0.448,0.343-0.729,0.449c-0.279,0.106-0.585,0.16-0.918,0.16
		c-0.332,0-0.638-0.054-0.918-0.16c-0.279-0.106-0.521-0.256-0.728-0.449c-0.207-0.192-0.366-0.422-0.479-0.688
		c-0.113-0.266-0.17-0.562-0.17-0.888c0-0.393,0.059-0.735,0.175-1.027c0.116-0.293,0.261-0.582,0.435-0.868l1.905-3.104h0.849
		L8.753,267.626z M8.034,269.592c0,0.227,0.038,0.433,0.115,0.618c0.076,0.187,0.185,0.348,0.324,0.484s0.306,0.241,0.499,0.314
		c0.192,0.073,0.405,0.109,0.638,0.109c0.233,0,0.446-0.036,0.639-0.109c0.193-0.073,0.359-0.178,0.499-0.314
		s0.248-0.298,0.324-0.484c0.077-0.186,0.115-0.392,0.115-0.618s-0.038-0.433-0.115-0.619c-0.076-0.186-0.185-0.346-0.324-0.479
		s-0.306-0.237-0.499-0.314c-0.192-0.076-0.405-0.114-0.639-0.114c-0.232,0-0.445,0.038-0.638,0.114
		c-0.193,0.077-0.359,0.182-0.499,0.314s-0.248,0.293-0.324,0.479C8.072,269.16,8.034,269.366,8.034,269.592z"/>
	<path d="M17.754,265.251H14.87l-0.05,2.126c0.153-0.061,0.31-0.104,0.469-0.13c0.16-0.026,0.319-0.04,0.479-0.04
		c0.332,0,0.635,0.057,0.908,0.17c0.272,0.113,0.507,0.271,0.703,0.474s0.35,0.442,0.459,0.719c0.109,0.275,0.165,0.577,0.165,0.902
		c0,0.34-0.061,0.65-0.18,0.934c-0.12,0.282-0.286,0.525-0.499,0.729c-0.213,0.202-0.464,0.36-0.754,0.474
		c-0.289,0.113-0.604,0.17-0.942,0.17c-0.446,0-0.849-0.106-1.208-0.319c-0.358-0.213-0.635-0.525-0.828-0.938l0.719-0.31
		c0.133,0.28,0.318,0.501,0.557,0.664c0.239,0.163,0.514,0.244,0.826,0.244c0.225,0,0.434-0.041,0.626-0.124
		c0.192-0.084,0.359-0.195,0.502-0.335s0.256-0.306,0.339-0.499c0.082-0.192,0.124-0.398,0.124-0.618
		c0-0.246-0.043-0.473-0.13-0.679s-0.206-0.384-0.359-0.534c-0.153-0.149-0.336-0.264-0.549-0.344s-0.445-0.12-0.698-0.12
		s-0.504,0.035-0.753,0.105c-0.25,0.069-0.487,0.164-0.714,0.284l0.07-3.662h3.602V265.251z"/>
	<path d="M-48.417,286.514c-0.12,0.18-0.269,0.349-0.444,0.509c-0.177,0.159-0.378,0.298-0.604,0.414
		c-0.227,0.116-0.471,0.208-0.733,0.274s-0.541,0.1-0.833,0.1c-0.525,0-1.013-0.094-1.462-0.279
		c-0.449-0.187-0.838-0.444-1.168-0.773c-0.329-0.329-0.587-0.72-0.772-1.173c-0.187-0.452-0.28-0.947-0.28-1.486
		s0.094-1.034,0.28-1.486c0.186-0.453,0.443-0.844,0.772-1.173c0.33-0.329,0.719-0.587,1.168-0.773
		c0.449-0.186,0.937-0.279,1.462-0.279c0.438,0,0.878,0.087,1.316,0.26c0.439,0.173,0.815,0.459,1.128,0.857l-0.629,0.47
		c-0.073-0.113-0.173-0.227-0.299-0.34c-0.127-0.112-0.271-0.213-0.435-0.299c-0.163-0.087-0.337-0.156-0.523-0.21
		c-0.187-0.053-0.373-0.08-0.559-0.08c-0.453,0-0.858,0.084-1.218,0.25s-0.663,0.389-0.913,0.668
		c-0.249,0.28-0.44,0.604-0.573,0.974c-0.134,0.369-0.2,0.757-0.2,1.162c0,0.406,0.066,0.793,0.2,1.162
		c0.133,0.369,0.324,0.693,0.573,0.974c0.25,0.279,0.554,0.502,0.913,0.668s0.765,0.25,1.218,0.25c0.186,0,0.37-0.017,0.554-0.051
		c0.183-0.033,0.362-0.089,0.539-0.169c0.176-0.08,0.342-0.188,0.498-0.324c0.156-0.137,0.302-0.308,0.435-0.514L-48.417,286.514z"
		/>
	<path d="M-45.608,283.451c0,0.14-0.05,0.265-0.149,0.374s-0.229,0.165-0.39,0.165c-0.159,0-0.289-0.056-0.389-0.165
		s-0.15-0.234-0.15-0.374s0.051-0.265,0.15-0.374c0.1-0.11,0.229-0.165,0.389-0.165c0.16,0,0.29,0.055,0.39,0.165
		C-45.658,283.186-45.608,283.311-45.608,283.451z M-45.608,287.153c0,0.14-0.05,0.264-0.149,0.374
		c-0.1,0.109-0.229,0.164-0.39,0.164c-0.159,0-0.289-0.055-0.389-0.164c-0.1-0.11-0.15-0.234-0.15-0.374s0.051-0.265,0.15-0.375
		c0.1-0.109,0.229-0.164,0.389-0.164c0.16,0,0.29,0.055,0.39,0.164C-45.658,286.888-45.608,287.013-45.608,287.153z"/>
	<path d="M-40.549,284.598l-0.02-0.021c-0.113,0.08-0.265,0.14-0.454,0.18s-0.364,0.061-0.524,0.061
		c-0.306,0-0.59-0.056-0.853-0.165s-0.491-0.261-0.684-0.454c-0.193-0.192-0.345-0.422-0.454-0.688
		c-0.109-0.266-0.165-0.559-0.165-0.878c0-0.326,0.057-0.622,0.17-0.888c0.113-0.267,0.272-0.496,0.479-0.688
		c0.206-0.193,0.448-0.343,0.728-0.449c0.28-0.106,0.586-0.16,0.918-0.16c0.333,0,0.639,0.054,0.918,0.16
		c0.28,0.106,0.522,0.256,0.729,0.449c0.206,0.192,0.366,0.422,0.479,0.688c0.113,0.266,0.17,0.562,0.17,0.888
		c0,0.393-0.059,0.735-0.175,1.027c-0.117,0.293-0.262,0.583-0.435,0.868l-1.905,3.104h-0.849L-40.549,284.598z M-39.83,282.632
		c0-0.226-0.038-0.433-0.115-0.618c-0.076-0.187-0.185-0.347-0.324-0.479s-0.306-0.237-0.499-0.314
		c-0.192-0.076-0.405-0.114-0.639-0.114c-0.232,0-0.445,0.038-0.638,0.114c-0.193,0.077-0.359,0.182-0.499,0.314
		s-0.248,0.293-0.324,0.479c-0.077,0.186-0.115,0.393-0.115,0.618c0,0.227,0.038,0.433,0.115,0.619
		c0.076,0.186,0.185,0.348,0.324,0.483c0.14,0.137,0.306,0.241,0.499,0.314c0.192,0.073,0.405,0.109,0.638,0.109
		c0.233,0,0.446-0.036,0.639-0.109c0.193-0.073,0.359-0.178,0.499-0.314c0.14-0.136,0.248-0.298,0.324-0.483
		C-39.868,283.065-39.83,282.859-39.83,282.632z"/>
	<path d="M-34.056,285.296h1.019v0.658h-1.019v1.677h-0.718v-1.677h-3.054v-0.817l2.854-4.57h0.918V285.296z M-34.773,281.286
		h-0.021l-2.435,4.011h2.455V281.286z"/>
	<path d="M-24.048,286.314l2.385-5.747h1.098v7.064h-0.719v-6.106h-0.02l-2.555,6.106h-0.379l-2.555-6.106h-0.02v6.106h-0.719
		v-7.064h1.098L-24.048,286.314z"/>
	<path d="M-17.118,283.451c0,0.14-0.05,0.265-0.149,0.374s-0.229,0.165-0.39,0.165c-0.159,0-0.289-0.056-0.389-0.165
		s-0.15-0.234-0.15-0.374s0.051-0.265,0.15-0.374c0.1-0.11,0.229-0.165,0.389-0.165c0.16,0,0.29,0.055,0.39,0.165
		C-17.168,283.186-17.118,283.311-17.118,283.451z M-17.118,287.153c0,0.14-0.05,0.264-0.149,0.374
		c-0.1,0.109-0.229,0.164-0.39,0.164c-0.159,0-0.289-0.055-0.389-0.164c-0.1-0.11-0.15-0.234-0.15-0.374s0.051-0.265,0.15-0.375
		c0.1-0.109,0.229-0.164,0.389-0.164c0.16,0,0.29,0.055,0.39,0.164C-17.168,286.888-17.118,287.013-17.118,287.153z"/>
	<path d="M-12.813,280.447c0.506,0,0.915,0.117,1.228,0.35c0.313,0.233,0.556,0.529,0.729,0.888c0.173,0.359,0.289,0.754,0.35,1.183
		c0.06,0.429,0.09,0.84,0.09,1.232s-0.03,0.804-0.09,1.232c-0.061,0.429-0.177,0.823-0.35,1.183
		c-0.173,0.358-0.416,0.655-0.729,0.888s-0.722,0.35-1.228,0.35c-0.505,0-0.914-0.117-1.227-0.35
		c-0.313-0.232-0.556-0.529-0.729-0.888c-0.173-0.359-0.289-0.754-0.35-1.183c-0.06-0.429-0.09-0.84-0.09-1.232
		s0.03-0.804,0.09-1.232c0.061-0.429,0.177-0.823,0.35-1.183c0.173-0.358,0.415-0.654,0.729-0.888
		C-13.727,280.564-13.317,280.447-12.813,280.447z M-12.813,281.106c-0.386,0-0.689,0.103-0.912,0.309
		c-0.224,0.207-0.392,0.463-0.504,0.769c-0.113,0.307-0.185,0.632-0.215,0.979c-0.03,0.346-0.045,0.658-0.045,0.938
		s0.015,0.592,0.045,0.938c0.03,0.347,0.102,0.673,0.215,0.979c0.112,0.306,0.28,0.562,0.504,0.769
		c0.223,0.206,0.526,0.309,0.912,0.309s0.69-0.103,0.913-0.309c0.224-0.207,0.391-0.463,0.504-0.769s0.185-0.632,0.215-0.979
		c0.03-0.346,0.045-0.658,0.045-0.938s-0.015-0.592-0.045-0.938c-0.03-0.347-0.102-0.672-0.215-0.979
		c-0.113-0.306-0.28-0.562-0.504-0.769C-12.122,281.208-12.427,281.106-12.813,281.106z"/>
	<path d="M-2.645,287.631h-0.718v-3.043l-2.645-4.021h0.898l2.104,3.333l2.105-3.333H0l-2.645,4.021V287.631z"/>
	<path d="M1.898,283.451c0,0.14-0.05,0.265-0.149,0.374s-0.229,0.165-0.39,0.165c-0.159,0-0.289-0.056-0.389-0.165
		s-0.15-0.234-0.15-0.374s0.051-0.265,0.15-0.374c0.1-0.11,0.229-0.165,0.389-0.165c0.16,0,0.29,0.055,0.39,0.165
		C1.849,283.186,1.898,283.311,1.898,283.451z M1.898,287.153c0,0.14-0.05,0.264-0.149,0.374c-0.1,0.109-0.229,0.164-0.39,0.164
		c-0.159,0-0.289-0.055-0.389-0.164c-0.1-0.11-0.15-0.234-0.15-0.374s0.051-0.265,0.15-0.375c0.1-0.109,0.229-0.164,0.389-0.164
		c0.16,0,0.29,0.055,0.39,0.164C1.849,286.888,1.898,287.013,1.898,287.153z"/>
	<path d="M6.144,287.631H5.425v-6.166l-1.268,1.117l-0.448-0.539l1.796-1.477h0.639V287.631z"/>
	<path d="M11.331,280.447c0.506,0,0.915,0.117,1.228,0.35c0.313,0.233,0.556,0.529,0.729,0.888c0.173,0.359,0.289,0.754,0.35,1.183
		c0.06,0.429,0.09,0.84,0.09,1.232s-0.03,0.804-0.09,1.232c-0.061,0.429-0.177,0.823-0.35,1.183
		c-0.173,0.358-0.416,0.655-0.729,0.888s-0.722,0.35-1.228,0.35c-0.505,0-0.914-0.117-1.227-0.35
		c-0.313-0.232-0.556-0.529-0.729-0.888c-0.173-0.359-0.289-0.754-0.35-1.183c-0.06-0.429-0.09-0.84-0.09-1.232
		s0.03-0.804,0.09-1.232c0.061-0.429,0.177-0.823,0.35-1.183c0.173-0.358,0.415-0.654,0.729-0.888
		C10.417,280.564,10.826,280.447,11.331,280.447z M11.331,281.106c-0.386,0-0.689,0.103-0.912,0.309
		c-0.224,0.207-0.392,0.463-0.504,0.769c-0.113,0.307-0.185,0.632-0.215,0.979c-0.03,0.346-0.045,0.658-0.045,0.938
		s0.015,0.592,0.045,0.938c0.03,0.347,0.102,0.673,0.215,0.979c0.112,0.306,0.28,0.562,0.504,0.769
		c0.223,0.206,0.526,0.309,0.912,0.309s0.69-0.103,0.913-0.309c0.224-0.207,0.391-0.463,0.504-0.769s0.185-0.632,0.215-0.979
		c0.03-0.346,0.045-0.658,0.045-0.938s-0.015-0.592-0.045-0.938c-0.03-0.347-0.102-0.672-0.215-0.979
		c-0.113-0.306-0.28-0.562-0.504-0.769C12.021,281.208,11.717,281.106,11.331,281.106z"/>
	<path d="M17.929,280.447c0.506,0,0.915,0.117,1.228,0.35c0.313,0.233,0.556,0.529,0.729,0.888c0.173,0.359,0.289,0.754,0.35,1.183
		c0.06,0.429,0.09,0.84,0.09,1.232s-0.03,0.804-0.09,1.232c-0.061,0.429-0.177,0.823-0.35,1.183
		c-0.173,0.358-0.416,0.655-0.729,0.888s-0.722,0.35-1.228,0.35c-0.505,0-0.914-0.117-1.227-0.35
		c-0.313-0.232-0.556-0.529-0.729-0.888c-0.173-0.359-0.289-0.754-0.35-1.183c-0.06-0.429-0.09-0.84-0.09-1.232
		s0.03-0.804,0.09-1.232c0.061-0.429,0.177-0.823,0.35-1.183c0.173-0.358,0.415-0.654,0.729-0.888
		C17.015,280.564,17.424,280.447,17.929,280.447z M17.929,281.106c-0.386,0-0.689,0.103-0.912,0.309
		c-0.224,0.207-0.392,0.463-0.504,0.769c-0.113,0.307-0.185,0.632-0.215,0.979c-0.03,0.346-0.045,0.658-0.045,0.938
		s0.015,0.592,0.045,0.938c0.03,0.347,0.102,0.673,0.215,0.979c0.112,0.306,0.28,0.562,0.504,0.769
		c0.223,0.206,0.526,0.309,0.912,0.309s0.69-0.103,0.913-0.309c0.224-0.207,0.391-0.463,0.504-0.769s0.185-0.632,0.215-0.979
		c0.03-0.346,0.045-0.658,0.045-0.938s-0.015-0.592-0.045-0.938c-0.03-0.347-0.102-0.672-0.215-0.979
		c-0.113-0.306-0.28-0.562-0.504-0.769C18.619,281.208,18.314,281.106,17.929,281.106z"/>
	<path d="M26.55,283.63h0.01h0.09l3.322-3.063H31l-3.563,3.203l3.762,3.861h-1.058l-3.473-3.642H26.56h-0.01v3.642h-0.719v-7.064
		h0.719V283.63z"/>
	<path d="M33.911,283.451c0,0.14-0.05,0.265-0.149,0.374s-0.229,0.165-0.39,0.165c-0.159,0-0.289-0.056-0.389-0.165
		s-0.15-0.234-0.15-0.374s0.051-0.265,0.15-0.374c0.1-0.11,0.229-0.165,0.389-0.165c0.16,0,0.29,0.055,0.39,0.165
		C33.861,283.186,33.911,283.311,33.911,283.451z M33.911,287.153c0,0.14-0.05,0.264-0.149,0.374c-0.1,0.109-0.229,0.164-0.39,0.164
		c-0.159,0-0.289-0.055-0.389-0.164c-0.1-0.11-0.15-0.234-0.15-0.374s0.051-0.265,0.15-0.375c0.1-0.109,0.229-0.164,0.389-0.164
		c0.16,0,0.29,0.055,0.39,0.164C33.861,286.888,33.911,287.013,33.911,287.153z"/>
	<path d="M38.217,280.447c0.506,0,0.915,0.117,1.228,0.35c0.313,0.233,0.556,0.529,0.729,0.888c0.173,0.359,0.289,0.754,0.35,1.183
		c0.06,0.429,0.09,0.84,0.09,1.232s-0.03,0.804-0.09,1.232c-0.061,0.429-0.177,0.823-0.35,1.183
		c-0.173,0.358-0.416,0.655-0.729,0.888s-0.722,0.35-1.228,0.35c-0.505,0-0.914-0.117-1.227-0.35
		c-0.313-0.232-0.556-0.529-0.729-0.888c-0.173-0.359-0.289-0.754-0.35-1.183c-0.06-0.429-0.09-0.84-0.09-1.232
		s0.03-0.804,0.09-1.232c0.061-0.429,0.177-0.823,0.35-1.183c0.173-0.358,0.415-0.654,0.729-0.888
		C37.303,280.564,37.712,280.447,38.217,280.447z M38.217,281.106c-0.386,0-0.689,0.103-0.912,0.309
		c-0.224,0.207-0.392,0.463-0.504,0.769c-0.113,0.307-0.185,0.632-0.215,0.979c-0.03,0.346-0.045,0.658-0.045,0.938
		s0.015,0.592,0.045,0.938c0.03,0.347,0.102,0.673,0.215,0.979c0.112,0.306,0.28,0.562,0.504,0.769
		c0.223,0.206,0.526,0.309,0.912,0.309s0.69-0.103,0.913-0.309c0.224-0.207,0.391-0.463,0.504-0.769s0.185-0.632,0.215-0.979
		c0.03-0.346,0.045-0.658,0.045-0.938s-0.015-0.592-0.045-0.938c-0.03-0.347-0.102-0.672-0.215-0.979
		c-0.113-0.306-0.28-0.562-0.504-0.769C38.907,281.208,38.603,281.106,38.217,281.106z"/>
	<path d="M-54.234,296.54h2.056c0.718,0,1.285,0.156,1.701,0.469c0.415,0.313,0.623,0.785,0.623,1.417s-0.208,1.106-0.623,1.422
		c-0.416,0.316-0.983,0.474-1.701,0.474h-1.337v3.283h-0.719V296.54z M-53.516,299.664h1.157c0.319,0,0.59-0.033,0.813-0.1
		c0.223-0.066,0.4-0.154,0.533-0.265c0.133-0.109,0.229-0.239,0.289-0.389c0.061-0.15,0.09-0.312,0.09-0.484
		c0-0.166-0.029-0.324-0.09-0.474c-0.06-0.149-0.156-0.281-0.289-0.395s-0.311-0.201-0.533-0.265
		c-0.224-0.063-0.494-0.095-0.813-0.095h-1.157V299.664z"/>
	<path d="M-45.109,300.742v-0.12c0-0.805-0.399-1.207-1.197-1.207c-0.546,0-1.021,0.183-1.427,0.549l-0.399-0.47
		c0.439-0.452,1.098-0.678,1.976-0.678c0.227,0,0.444,0.033,0.653,0.1c0.21,0.066,0.391,0.168,0.544,0.304
		c0.153,0.137,0.276,0.309,0.369,0.515c0.094,0.206,0.14,0.452,0.14,0.738v2.085c0,0.18,0.009,0.368,0.025,0.563
		c0.017,0.196,0.035,0.358,0.055,0.484h-0.639c-0.02-0.113-0.035-0.236-0.045-0.369s-0.015-0.263-0.015-0.39h-0.021
		c-0.192,0.313-0.421,0.538-0.684,0.674c-0.263,0.137-0.583,0.205-0.963,0.205c-0.206,0-0.405-0.028-0.599-0.085
		c-0.192-0.057-0.364-0.144-0.514-0.26s-0.27-0.26-0.359-0.429c-0.09-0.17-0.135-0.368-0.135-0.594c0-0.379,0.099-0.677,0.295-0.894
		c0.196-0.216,0.442-0.377,0.738-0.483s0.612-0.173,0.948-0.2c0.336-0.026,0.644-0.039,0.923-0.039H-45.109z M-45.448,301.28
		c-0.167,0-0.375,0.009-0.624,0.025c-0.25,0.017-0.489,0.057-0.719,0.119c-0.229,0.063-0.426,0.162-0.589,0.295
		s-0.244,0.315-0.244,0.549c0,0.153,0.031,0.284,0.095,0.394c0.063,0.11,0.148,0.2,0.255,0.27c0.106,0.07,0.225,0.12,0.354,0.15
		c0.13,0.029,0.262,0.045,0.395,0.045c0.239,0,0.447-0.04,0.624-0.12c0.176-0.08,0.324-0.188,0.443-0.324
		c0.12-0.137,0.208-0.296,0.265-0.479c0.057-0.183,0.085-0.377,0.085-0.583v-0.34H-45.448z"/>
	<path d="M-41.534,298.935c0.014,0.127,0.021,0.251,0.025,0.374c0.003,0.123,0.005,0.248,0.005,0.375h0.02
		c0.073-0.127,0.167-0.243,0.28-0.35c0.112-0.106,0.239-0.198,0.379-0.274s0.287-0.137,0.443-0.18s0.312-0.064,0.465-0.064
		c0.599,0,1.041,0.157,1.327,0.474c0.285,0.316,0.429,0.767,0.429,1.352v2.964h-0.658v-2.584c0-0.52-0.09-0.917-0.27-1.192
		c-0.18-0.276-0.513-0.414-0.998-0.414c-0.033,0-0.127,0.013-0.279,0.04c-0.153,0.026-0.314,0.1-0.484,0.219
		c-0.169,0.12-0.32,0.3-0.454,0.539c-0.133,0.239-0.199,0.572-0.199,0.998v2.395h-0.658v-3.642c0-0.127-0.005-0.286-0.016-0.479
		c-0.01-0.192-0.021-0.376-0.034-0.549H-41.534z"/>
	<path d="M-33.495,299.534h-1.347v2.754c0,0.173,0.017,0.314,0.05,0.425c0.033,0.109,0.08,0.194,0.14,0.254s0.131,0.102,0.215,0.125
		c0.083,0.023,0.175,0.035,0.274,0.035c0.112,0,0.229-0.017,0.349-0.051c0.12-0.033,0.229-0.076,0.33-0.129l0.029,0.608
		c-0.246,0.113-0.542,0.17-0.888,0.17c-0.127,0-0.258-0.017-0.395-0.05c-0.136-0.034-0.261-0.097-0.374-0.19
		c-0.113-0.093-0.206-0.219-0.279-0.379c-0.073-0.159-0.109-0.369-0.109-0.629v-2.943h-0.988v-0.599h0.988v-1.317h0.658v1.317h1.347
		V299.534z"/>
	<path d="M-27.179,301.27c0,0.353-0.063,0.679-0.185,0.978c-0.124,0.3-0.295,0.56-0.515,0.778c-0.219,0.22-0.48,0.392-0.783,0.515
		s-0.637,0.185-1.003,0.185c-0.358,0-0.689-0.062-0.992-0.185s-0.564-0.295-0.783-0.515c-0.22-0.219-0.392-0.479-0.515-0.778
		c-0.123-0.299-0.185-0.625-0.185-0.978s0.062-0.679,0.185-0.978c0.123-0.3,0.295-0.559,0.515-0.778
		c0.219-0.22,0.48-0.391,0.783-0.514s0.634-0.185,0.992-0.185c0.366,0,0.7,0.062,1.003,0.185s0.564,0.294,0.783,0.514
		c0.22,0.22,0.391,0.479,0.515,0.778C-27.241,300.591-27.179,300.917-27.179,301.27z M-27.897,301.27
		c0-0.26-0.042-0.502-0.125-0.729c-0.083-0.226-0.201-0.422-0.354-0.589c-0.152-0.166-0.337-0.297-0.554-0.394
		c-0.216-0.097-0.46-0.145-0.733-0.145c-0.272,0-0.517,0.048-0.733,0.145c-0.216,0.097-0.398,0.228-0.549,0.394
		c-0.149,0.167-0.266,0.363-0.349,0.589c-0.083,0.227-0.125,0.469-0.125,0.729s0.042,0.502,0.125,0.729s0.199,0.423,0.349,0.589
		c0.15,0.166,0.333,0.298,0.549,0.394c0.217,0.097,0.461,0.146,0.733,0.146c0.273,0,0.518-0.049,0.733-0.146
		c0.217-0.096,0.401-0.228,0.554-0.394c0.153-0.166,0.271-0.362,0.354-0.589S-27.897,301.53-27.897,301.27z"/>
	<path d="M-24.558,298.935c0.014,0.127,0.021,0.251,0.025,0.374c0.003,0.123,0.005,0.248,0.005,0.375h0.02
		c0.073-0.127,0.167-0.243,0.28-0.35c0.112-0.106,0.239-0.198,0.379-0.274s0.287-0.137,0.443-0.18s0.312-0.064,0.465-0.064
		c0.599,0,1.041,0.157,1.327,0.474c0.285,0.316,0.429,0.767,0.429,1.352v2.964h-0.658v-2.584c0-0.52-0.09-0.917-0.27-1.192
		c-0.18-0.276-0.513-0.414-0.998-0.414c-0.033,0-0.127,0.013-0.279,0.04c-0.153,0.026-0.314,0.1-0.484,0.219
		c-0.169,0.12-0.32,0.3-0.454,0.539c-0.133,0.239-0.199,0.572-0.199,0.998v2.395h-0.658v-3.642c0-0.127-0.005-0.286-0.016-0.479
		c-0.01-0.192-0.021-0.376-0.034-0.549H-24.558z"/>
	<path d="M-18.439,301.45c0.02,0.233,0.076,0.452,0.169,0.658c0.094,0.207,0.217,0.385,0.369,0.534
		c0.153,0.149,0.33,0.268,0.529,0.354c0.199,0.086,0.416,0.13,0.648,0.13c0.353,0,0.657-0.082,0.913-0.245s0.45-0.351,0.584-0.563
		l0.509,0.419c-0.279,0.353-0.587,0.605-0.923,0.759c-0.336,0.152-0.697,0.229-1.083,0.229c-0.346,0-0.667-0.062-0.963-0.185
		s-0.551-0.295-0.764-0.515c-0.213-0.219-0.381-0.479-0.504-0.778c-0.123-0.299-0.185-0.625-0.185-0.978s0.061-0.679,0.18-0.978
		c0.12-0.3,0.286-0.559,0.499-0.778s0.463-0.391,0.749-0.514c0.285-0.123,0.595-0.185,0.928-0.185c0.353,0,0.668,0.063,0.947,0.189
		c0.28,0.126,0.515,0.294,0.704,0.504c0.189,0.209,0.334,0.455,0.434,0.738c0.1,0.282,0.15,0.584,0.15,0.902v0.3H-18.439z
		 M-15.267,300.911c0-0.445-0.134-0.807-0.399-1.082c-0.266-0.276-0.639-0.414-1.117-0.414c-0.213,0-0.419,0.041-0.619,0.124
		c-0.199,0.084-0.374,0.195-0.523,0.335s-0.27,0.299-0.359,0.479s-0.135,0.366-0.135,0.559H-15.267z"/>
	<path d="M-11.63,299.424c0,0.14-0.05,0.265-0.149,0.374s-0.229,0.165-0.39,0.165c-0.159,0-0.289-0.056-0.389-0.165
		s-0.15-0.234-0.15-0.374s0.051-0.265,0.15-0.374c0.1-0.11,0.229-0.165,0.389-0.165c0.16,0,0.29,0.055,0.39,0.165
		C-11.68,299.16-11.63,299.285-11.63,299.424z M-11.63,303.126c0,0.14-0.05,0.264-0.149,0.374c-0.1,0.109-0.229,0.164-0.39,0.164
		c-0.159,0-0.289-0.055-0.389-0.164c-0.1-0.11-0.15-0.234-0.15-0.374s0.051-0.265,0.15-0.375c0.1-0.109,0.229-0.164,0.389-0.164
		c0.16,0,0.29,0.055,0.39,0.164C-11.68,302.862-11.63,302.987-11.63,303.126z"/>
	<path d="M-4.577,299.574h0.369c0.206,0,0.404-0.023,0.594-0.069c0.189-0.047,0.354-0.122,0.494-0.225
		c0.14-0.104,0.251-0.238,0.334-0.404c0.084-0.166,0.125-0.366,0.125-0.599c0-0.379-0.114-0.674-0.344-0.883
		c-0.229-0.21-0.551-0.314-0.963-0.314c-0.3,0-0.563,0.066-0.789,0.199c-0.226,0.133-0.412,0.326-0.559,0.579l-0.628-0.319
		c0.212-0.38,0.483-0.66,0.813-0.844c0.329-0.183,0.71-0.274,1.143-0.274c0.279,0,0.542,0.04,0.788,0.12s0.463,0.198,0.649,0.354
		c0.186,0.156,0.334,0.349,0.443,0.578c0.11,0.229,0.165,0.491,0.165,0.783c0,0.193-0.032,0.376-0.095,0.549
		c-0.063,0.174-0.15,0.33-0.26,0.47s-0.238,0.261-0.384,0.364c-0.146,0.103-0.3,0.181-0.459,0.234l0.029,0.02
		c0.2,0.04,0.383,0.115,0.549,0.225s0.31,0.244,0.43,0.404c0.119,0.159,0.213,0.339,0.279,0.539c0.066,0.199,0.1,0.408,0.1,0.628
		c0,0.326-0.06,0.615-0.18,0.868s-0.283,0.466-0.489,0.639s-0.445,0.305-0.718,0.395c-0.273,0.09-0.563,0.135-0.868,0.135
		c-0.52,0-0.972-0.113-1.357-0.34c-0.386-0.226-0.675-0.589-0.868-1.087l0.759-0.229c0.119,0.339,0.298,0.59,0.533,0.753
		c0.236,0.163,0.567,0.244,0.993,0.244c0.199,0,0.39-0.033,0.568-0.1c0.18-0.066,0.338-0.161,0.475-0.284
		c0.136-0.123,0.242-0.271,0.319-0.444c0.076-0.173,0.114-0.362,0.114-0.568c0-0.267-0.05-0.49-0.149-0.674
		c-0.1-0.183-0.233-0.331-0.399-0.444c-0.166-0.112-0.357-0.194-0.573-0.244c-0.217-0.05-0.441-0.075-0.674-0.075h-0.31V299.574z"/>
	<path d="M4.224,297.199H1.34l-0.05,2.126c0.153-0.061,0.31-0.104,0.469-0.13c0.16-0.026,0.319-0.04,0.479-0.04
		c0.332,0,0.635,0.057,0.908,0.17c0.272,0.113,0.507,0.271,0.703,0.474s0.35,0.442,0.459,0.719c0.109,0.275,0.165,0.577,0.165,0.902
		c0,0.34-0.061,0.65-0.18,0.934c-0.12,0.282-0.286,0.525-0.499,0.729c-0.213,0.202-0.464,0.36-0.754,0.474
		c-0.289,0.113-0.604,0.17-0.942,0.17c-0.446,0-0.849-0.106-1.208-0.319c-0.358-0.213-0.635-0.525-0.828-0.938l0.719-0.31
		c0.133,0.28,0.318,0.501,0.557,0.664c0.239,0.163,0.514,0.244,0.826,0.244c0.225,0,0.434-0.041,0.626-0.124
		c0.192-0.084,0.359-0.195,0.502-0.335s0.256-0.306,0.339-0.499c0.082-0.192,0.124-0.398,0.124-0.618
		c0-0.246-0.043-0.473-0.13-0.679s-0.206-0.384-0.359-0.534c-0.153-0.149-0.336-0.264-0.549-0.344s-0.445-0.12-0.698-0.12
		s-0.504,0.035-0.753,0.105c-0.25,0.069-0.487,0.164-0.714,0.284l0.07-3.662h3.602V297.199z"/>
	<path d="M10.032,301.27h1.019v0.658h-1.019v1.677H9.314v-1.677H6.261v-0.817l2.854-4.57h0.918V301.27z M9.314,297.259H9.294
		l-2.435,4.011h2.455V297.259z"/>
	<path d="M18.983,302.488c-0.12,0.18-0.269,0.349-0.444,0.509c-0.177,0.159-0.378,0.298-0.604,0.414
		c-0.227,0.116-0.471,0.208-0.733,0.274s-0.541,0.1-0.833,0.1c-0.525,0-1.013-0.094-1.462-0.279
		c-0.449-0.187-0.838-0.444-1.168-0.773c-0.329-0.329-0.587-0.72-0.772-1.173c-0.187-0.452-0.28-0.947-0.28-1.486
		s0.094-1.034,0.28-1.486c0.186-0.453,0.443-0.844,0.772-1.173c0.33-0.329,0.719-0.587,1.168-0.773
		c0.449-0.186,0.937-0.279,1.462-0.279c0.438,0,0.878,0.087,1.316,0.26c0.439,0.173,0.815,0.459,1.128,0.857l-0.629,0.47
		c-0.073-0.113-0.173-0.227-0.299-0.34c-0.127-0.112-0.271-0.213-0.435-0.299c-0.163-0.087-0.337-0.156-0.523-0.21
		c-0.187-0.053-0.373-0.08-0.559-0.08c-0.453,0-0.858,0.084-1.218,0.25s-0.663,0.389-0.913,0.668
		c-0.249,0.28-0.44,0.604-0.573,0.974c-0.134,0.369-0.2,0.757-0.2,1.162c0,0.406,0.066,0.793,0.2,1.162
		c0.133,0.369,0.324,0.693,0.573,0.974c0.25,0.279,0.554,0.502,0.913,0.668s0.765,0.25,1.218,0.25c0.186,0,0.37-0.017,0.554-0.051
		c0.183-0.033,0.362-0.089,0.539-0.169c0.176-0.08,0.342-0.188,0.498-0.324c0.156-0.137,0.302-0.308,0.435-0.514L18.983,302.488z"/>
</g>
<g>
	<path d="M146.485,272.325h-0.719v-7.064h2.175c0.719,0,1.286,0.156,1.701,0.469c0.416,0.313,0.624,0.785,0.624,1.417
		c0,0.492-0.154,0.906-0.464,1.242s-0.757,0.53-1.342,0.584l2.035,3.353h-0.878l-1.936-3.283h-1.197V272.325z M146.485,268.383
		h1.276c0.319,0,0.591-0.033,0.813-0.1s0.4-0.154,0.534-0.265c0.133-0.109,0.229-0.239,0.289-0.389c0.06-0.15,0.09-0.312,0.09-0.484
		c0-0.166-0.03-0.324-0.09-0.474s-0.156-0.281-0.289-0.395c-0.134-0.113-0.312-0.201-0.534-0.265
		c-0.223-0.063-0.494-0.095-0.813-0.095h-1.276V268.383z"/>
	<path d="M153.349,268.144c0,0.14-0.05,0.265-0.149,0.374s-0.229,0.165-0.39,0.165c-0.159,0-0.289-0.056-0.389-0.165
		s-0.15-0.234-0.15-0.374s0.051-0.265,0.15-0.374c0.1-0.11,0.229-0.165,0.389-0.165c0.16,0,0.29,0.055,0.39,0.165
		C153.299,267.879,153.349,268.004,153.349,268.144z M153.349,271.846c0,0.14-0.05,0.264-0.149,0.374
		c-0.1,0.109-0.229,0.164-0.39,0.164c-0.159,0-0.289-0.055-0.389-0.164c-0.1-0.11-0.15-0.234-0.15-0.374s0.051-0.265,0.15-0.375
		c0.1-0.109,0.229-0.164,0.389-0.164c0.16,0,0.29,0.055,0.39,0.164C153.299,271.582,153.349,271.707,153.349,271.846z"/>
	<path d="M159.776,272.325h-4.49v-0.828l2.814-2.863c0.106-0.106,0.213-0.22,0.319-0.34c0.106-0.119,0.202-0.246,0.289-0.379
		c0.086-0.133,0.156-0.272,0.21-0.419c0.053-0.146,0.079-0.3,0.079-0.459c0-0.193-0.034-0.366-0.104-0.52
		c-0.069-0.152-0.168-0.282-0.294-0.389c-0.127-0.106-0.273-0.188-0.439-0.244s-0.343-0.085-0.528-0.085
		c-0.359,0-0.666,0.1-0.918,0.299c-0.253,0.2-0.416,0.469-0.489,0.809l-0.759-0.08c0.101-0.525,0.341-0.938,0.724-1.237
		c0.383-0.299,0.847-0.449,1.392-0.449c0.286,0,0.558,0.039,0.813,0.115s0.482,0.191,0.679,0.344
		c0.196,0.153,0.353,0.345,0.469,0.574s0.175,0.497,0.175,0.803c0,0.273-0.042,0.522-0.125,0.749
		c-0.083,0.226-0.191,0.438-0.324,0.639c-0.133,0.199-0.284,0.389-0.454,0.568c-0.169,0.18-0.344,0.356-0.523,0.529l-2.226,2.205
		h3.712V272.325z"/>
	<path d="M165.647,265.918h-2.884l-0.05,2.126c0.153-0.061,0.31-0.104,0.469-0.13c0.16-0.026,0.319-0.04,0.479-0.04
		c0.332,0,0.635,0.057,0.908,0.17c0.272,0.113,0.507,0.271,0.703,0.474c0.196,0.203,0.35,0.442,0.459,0.719
		c0.109,0.275,0.165,0.577,0.165,0.902c0,0.34-0.061,0.65-0.18,0.934c-0.12,0.282-0.286,0.525-0.499,0.729
		c-0.213,0.202-0.464,0.36-0.754,0.474c-0.289,0.113-0.604,0.17-0.942,0.17c-0.446,0-0.849-0.106-1.208-0.319
		c-0.358-0.213-0.635-0.525-0.828-0.938l0.719-0.31c0.133,0.28,0.318,0.501,0.557,0.664c0.239,0.163,0.514,0.244,0.826,0.244
		c0.225,0,0.434-0.041,0.626-0.124c0.192-0.084,0.359-0.195,0.502-0.335s0.256-0.306,0.339-0.499
		c0.082-0.192,0.124-0.398,0.124-0.618c0-0.246-0.043-0.473-0.13-0.679s-0.206-0.384-0.359-0.534
		c-0.153-0.149-0.336-0.264-0.549-0.344s-0.445-0.12-0.698-0.12s-0.504,0.035-0.753,0.105c-0.25,0.069-0.487,0.164-0.714,0.284
		l0.07-3.662h3.602V265.918z"/>
	<path d="M171.455,269.99h1.019v0.658h-1.019v1.677h-0.718v-1.677h-3.054v-0.817l2.854-4.57h0.918V269.99z M170.737,265.979h-0.021
		l-2.435,4.011h2.455V265.979z"/>
	<path d="M183.2,266.557c-0.24-0.253-0.526-0.452-0.858-0.599c-0.333-0.146-0.719-0.22-1.157-0.22c-0.453,0-0.858,0.084-1.218,0.25
		s-0.663,0.389-0.913,0.668c-0.249,0.28-0.44,0.604-0.573,0.974c-0.134,0.369-0.2,0.757-0.2,1.162c0,0.406,0.066,0.793,0.2,1.162
		c0.133,0.369,0.324,0.693,0.573,0.974c0.25,0.279,0.554,0.502,0.913,0.668s0.765,0.25,1.218,0.25c0.365,0,0.717-0.045,1.053-0.135
		s0.637-0.212,0.902-0.364v-2.365h-1.686v-0.658h2.404v3.462c-0.399,0.233-0.837,0.411-1.313,0.534s-0.93,0.185-1.361,0.185
		c-0.525,0-1.013-0.094-1.462-0.279c-0.449-0.187-0.838-0.444-1.168-0.773c-0.329-0.329-0.587-0.72-0.772-1.173
		c-0.187-0.452-0.28-0.947-0.28-1.486s0.094-1.034,0.28-1.486c0.186-0.453,0.443-0.844,0.772-1.173
		c0.33-0.329,0.719-0.587,1.168-0.773c0.449-0.186,0.937-0.279,1.462-0.279c0.565,0,1.053,0.078,1.462,0.234
		c0.408,0.156,0.772,0.395,1.092,0.714L183.2,266.557z"/>
	<path d="M187.231,268.144c0,0.14-0.05,0.265-0.149,0.374s-0.229,0.165-0.39,0.165c-0.159,0-0.289-0.056-0.389-0.165
		s-0.15-0.234-0.15-0.374s0.051-0.265,0.15-0.374c0.1-0.11,0.229-0.165,0.389-0.165c0.16,0,0.29,0.055,0.39,0.165
		C187.181,267.879,187.231,268.004,187.231,268.144z M187.231,271.846c0,0.14-0.05,0.264-0.149,0.374
		c-0.1,0.109-0.229,0.164-0.39,0.164c-0.159,0-0.289-0.055-0.389-0.164c-0.1-0.11-0.15-0.234-0.15-0.374s0.051-0.265,0.15-0.375
		c0.1-0.109,0.229-0.164,0.389-0.164c0.16,0,0.29,0.055,0.39,0.164C187.181,271.582,187.231,271.707,187.231,271.846z"/>
	<path d="M193.657,272.325h-4.49v-0.828l2.814-2.863c0.106-0.106,0.213-0.22,0.319-0.34c0.106-0.119,0.202-0.246,0.289-0.379
		c0.086-0.133,0.156-0.272,0.21-0.419c0.053-0.146,0.079-0.3,0.079-0.459c0-0.193-0.034-0.366-0.104-0.52
		c-0.069-0.152-0.168-0.282-0.294-0.389c-0.127-0.106-0.273-0.188-0.439-0.244s-0.343-0.085-0.528-0.085
		c-0.359,0-0.666,0.1-0.918,0.299c-0.253,0.2-0.416,0.469-0.489,0.809l-0.759-0.08c0.101-0.525,0.341-0.938,0.724-1.237
		c0.383-0.299,0.847-0.449,1.392-0.449c0.286,0,0.558,0.039,0.813,0.115s0.482,0.191,0.679,0.344
		c0.196,0.153,0.353,0.345,0.469,0.574s0.175,0.497,0.175,0.803c0,0.273-0.042,0.522-0.125,0.749
		c-0.083,0.226-0.191,0.438-0.324,0.639c-0.133,0.199-0.284,0.389-0.454,0.568c-0.169,0.18-0.344,0.356-0.523,0.529l-2.226,2.205
		h3.712V272.325z"/>
	<path d="M199.949,272.325h-4.49v-0.828l2.814-2.863c0.106-0.106,0.213-0.22,0.319-0.34c0.106-0.119,0.202-0.246,0.289-0.379
		c0.086-0.133,0.156-0.272,0.21-0.419c0.053-0.146,0.079-0.3,0.079-0.459c0-0.193-0.034-0.366-0.104-0.52
		c-0.069-0.152-0.168-0.282-0.294-0.389c-0.127-0.106-0.273-0.188-0.439-0.244s-0.343-0.085-0.528-0.085
		c-0.359,0-0.666,0.1-0.918,0.299c-0.253,0.2-0.416,0.469-0.489,0.809l-0.759-0.08c0.101-0.525,0.341-0.938,0.724-1.237
		c0.383-0.299,0.847-0.449,1.392-0.449c0.286,0,0.558,0.039,0.813,0.115s0.482,0.191,0.679,0.344
		c0.196,0.153,0.353,0.345,0.469,0.574s0.175,0.497,0.175,0.803c0,0.273-0.042,0.522-0.125,0.749
		c-0.083,0.226-0.191,0.438-0.324,0.639c-0.133,0.199-0.284,0.389-0.454,0.568c-0.169,0.18-0.344,0.356-0.523,0.529l-2.226,2.205
		h3.712V272.325z"/>
	<path d="M204.441,272.325h-0.719v-6.166l-1.268,1.117l-0.448-0.539l1.796-1.477h0.639V272.325z"/>
	<path d="M211.644,265.26h2.105c0.292,0,0.575,0.03,0.848,0.09s0.516,0.159,0.729,0.299c0.213,0.141,0.383,0.323,0.509,0.549
		c0.127,0.227,0.189,0.506,0.189,0.839c0,0.386-0.107,0.717-0.324,0.992c-0.216,0.276-0.523,0.461-0.923,0.554v0.021
		c0.499,0.04,0.89,0.215,1.173,0.523c0.282,0.31,0.424,0.724,0.424,1.242c0,0.113-0.028,0.279-0.085,0.499s-0.175,0.438-0.354,0.653
		c-0.179,0.217-0.438,0.404-0.778,0.564c-0.339,0.159-0.791,0.239-1.356,0.239h-2.155V265.26z M212.363,268.353h1.446
		c0.173,0,0.345-0.021,0.514-0.064c0.17-0.043,0.323-0.114,0.459-0.215c0.137-0.1,0.248-0.228,0.335-0.384
		c0.086-0.156,0.129-0.348,0.129-0.574c0-0.072-0.015-0.176-0.045-0.309c-0.029-0.133-0.096-0.267-0.199-0.399
		s-0.254-0.248-0.454-0.344c-0.199-0.097-0.469-0.146-0.808-0.146h-1.377V268.353z M212.363,271.666h1.377
		c0.259,0,0.502-0.026,0.728-0.08c0.227-0.054,0.423-0.135,0.589-0.244c0.166-0.11,0.298-0.248,0.395-0.414
		c0.097-0.167,0.145-0.366,0.145-0.6c0-0.465-0.149-0.811-0.449-1.037c-0.299-0.227-0.738-0.34-1.316-0.34h-1.467V271.666z"/>
	<path d="M219.37,268.144c0,0.14-0.05,0.265-0.149,0.374s-0.229,0.165-0.39,0.165c-0.159,0-0.289-0.056-0.389-0.165
		s-0.15-0.234-0.15-0.374s0.051-0.265,0.15-0.374c0.1-0.11,0.229-0.165,0.389-0.165c0.16,0,0.29,0.055,0.39,0.165
		C219.32,267.879,219.37,268.004,219.37,268.144z M219.37,271.846c0,0.14-0.05,0.264-0.149,0.374c-0.1,0.109-0.229,0.164-0.39,0.164
		c-0.159,0-0.289-0.055-0.389-0.164c-0.1-0.11-0.15-0.234-0.15-0.374s0.051-0.265,0.15-0.375c0.1-0.109,0.229-0.164,0.389-0.164
		c0.16,0,0.29,0.055,0.39,0.164C219.32,271.582,219.37,271.707,219.37,271.846z"/>
	<path d="M222.686,268.293l0.02,0.021c0.113-0.08,0.265-0.14,0.454-0.18s0.364-0.061,0.524-0.061c0.306,0,0.59,0.056,0.853,0.165
		s0.49,0.261,0.684,0.454c0.193,0.192,0.345,0.422,0.454,0.688c0.109,0.266,0.165,0.559,0.165,0.878c0,0.326-0.057,0.622-0.17,0.888
		c-0.113,0.267-0.273,0.496-0.479,0.688c-0.206,0.193-0.448,0.343-0.729,0.449c-0.279,0.106-0.585,0.16-0.918,0.16
		c-0.332,0-0.638-0.054-0.918-0.16c-0.279-0.106-0.521-0.256-0.728-0.449c-0.207-0.192-0.366-0.422-0.479-0.688
		c-0.113-0.266-0.17-0.562-0.17-0.888c0-0.393,0.059-0.735,0.175-1.027c0.116-0.293,0.261-0.582,0.435-0.868l1.905-3.104h0.849
		L222.686,268.293z M221.967,270.259c0,0.227,0.038,0.433,0.115,0.618c0.076,0.187,0.185,0.348,0.324,0.484s0.306,0.241,0.499,0.314
		c0.192,0.073,0.405,0.109,0.638,0.109c0.233,0,0.446-0.036,0.639-0.109c0.193-0.073,0.359-0.178,0.499-0.314
		s0.248-0.298,0.324-0.484c0.077-0.186,0.115-0.392,0.115-0.618s-0.038-0.433-0.115-0.619c-0.076-0.186-0.185-0.346-0.324-0.479
		s-0.306-0.237-0.499-0.314c-0.192-0.076-0.405-0.114-0.639-0.114c-0.232,0-0.445,0.038-0.638,0.114
		c-0.193,0.077-0.359,0.182-0.499,0.314s-0.248,0.293-0.324,0.479C222.005,269.827,221.967,270.033,221.967,270.259z"/>
	<path d="M229.898,265.14c0.506,0,0.915,0.117,1.228,0.35c0.313,0.233,0.556,0.529,0.729,0.888c0.173,0.359,0.289,0.754,0.35,1.183
		c0.06,0.429,0.09,0.84,0.09,1.232s-0.03,0.804-0.09,1.232c-0.061,0.429-0.177,0.823-0.35,1.183
		c-0.173,0.358-0.416,0.655-0.729,0.888s-0.722,0.35-1.228,0.35c-0.505,0-0.914-0.117-1.227-0.35
		c-0.313-0.232-0.556-0.529-0.729-0.888c-0.173-0.359-0.289-0.754-0.35-1.183c-0.06-0.429-0.09-0.84-0.09-1.232
		s0.03-0.804,0.09-1.232c0.061-0.429,0.177-0.823,0.35-1.183c0.173-0.358,0.415-0.654,0.729-0.888
		C228.984,265.257,229.393,265.14,229.898,265.14z M229.898,265.799c-0.386,0-0.689,0.103-0.912,0.309
		c-0.224,0.207-0.392,0.463-0.504,0.769c-0.113,0.307-0.185,0.632-0.215,0.979c-0.03,0.346-0.045,0.658-0.045,0.938
		s0.015,0.592,0.045,0.938c0.03,0.347,0.102,0.673,0.215,0.979c0.112,0.306,0.28,0.562,0.504,0.769
		c0.223,0.206,0.526,0.309,0.912,0.309s0.69-0.103,0.913-0.309c0.224-0.207,0.391-0.463,0.504-0.769
		c0.113-0.306,0.185-0.632,0.215-0.979c0.03-0.346,0.045-0.658,0.045-0.938s-0.015-0.592-0.045-0.938
		c-0.03-0.347-0.102-0.672-0.215-0.979c-0.113-0.306-0.28-0.562-0.504-0.769C230.588,265.902,230.284,265.799,229.898,265.799z"/>
	<path d="M151.583,287.181c-0.12,0.18-0.269,0.349-0.444,0.509c-0.177,0.159-0.378,0.298-0.604,0.414
		c-0.227,0.116-0.471,0.208-0.733,0.274s-0.541,0.1-0.833,0.1c-0.525,0-1.013-0.094-1.462-0.279
		c-0.449-0.187-0.838-0.444-1.168-0.773c-0.329-0.329-0.587-0.72-0.772-1.173c-0.187-0.452-0.28-0.947-0.28-1.486
		s0.094-1.034,0.28-1.486c0.186-0.453,0.443-0.844,0.772-1.173c0.33-0.329,0.719-0.587,1.168-0.773
		c0.449-0.186,0.937-0.279,1.462-0.279c0.438,0,0.878,0.087,1.316,0.26c0.439,0.173,0.815,0.459,1.128,0.857l-0.629,0.47
		c-0.073-0.113-0.173-0.227-0.299-0.34c-0.127-0.112-0.271-0.213-0.435-0.299c-0.163-0.087-0.337-0.156-0.523-0.21
		c-0.187-0.053-0.373-0.08-0.559-0.08c-0.453,0-0.858,0.084-1.218,0.25s-0.663,0.389-0.913,0.668
		c-0.249,0.28-0.44,0.604-0.573,0.974c-0.134,0.369-0.2,0.757-0.2,1.162c0,0.406,0.066,0.793,0.2,1.162
		c0.133,0.369,0.324,0.693,0.573,0.974c0.25,0.279,0.554,0.502,0.913,0.668s0.765,0.25,1.218,0.25c0.186,0,0.37-0.017,0.554-0.051
		c0.183-0.033,0.362-0.089,0.539-0.169c0.176-0.08,0.342-0.188,0.498-0.324c0.156-0.137,0.302-0.308,0.435-0.514L151.583,287.181z"
		/>
	<path d="M154.392,284.118c0,0.14-0.05,0.265-0.149,0.374s-0.229,0.165-0.39,0.165c-0.159,0-0.289-0.056-0.389-0.165
		s-0.15-0.234-0.15-0.374s0.051-0.265,0.15-0.374c0.1-0.11,0.229-0.165,0.389-0.165c0.16,0,0.29,0.055,0.39,0.165
		C154.342,283.853,154.392,283.978,154.392,284.118z M154.392,287.82c0,0.14-0.05,0.264-0.149,0.374
		c-0.1,0.109-0.229,0.164-0.39,0.164c-0.159,0-0.289-0.055-0.389-0.164c-0.1-0.11-0.15-0.234-0.15-0.374s0.051-0.265,0.15-0.375
		c0.1-0.109,0.229-0.164,0.389-0.164c0.16,0,0.29,0.055,0.39,0.164C154.342,287.555,154.392,287.68,154.392,287.82z"/>
	<path d="M160.818,288.298h-4.49v-0.828l2.814-2.863c0.106-0.106,0.213-0.22,0.319-0.34c0.106-0.119,0.202-0.246,0.289-0.379
		c0.086-0.133,0.156-0.272,0.21-0.419c0.053-0.146,0.079-0.3,0.079-0.459c0-0.193-0.034-0.366-0.104-0.52
		c-0.069-0.152-0.168-0.282-0.294-0.389c-0.127-0.106-0.273-0.188-0.439-0.244c-0.166-0.057-0.343-0.085-0.528-0.085
		c-0.359,0-0.666,0.1-0.918,0.299c-0.253,0.2-0.416,0.469-0.489,0.809l-0.759-0.08c0.101-0.525,0.341-0.938,0.724-1.237
		c0.383-0.299,0.847-0.449,1.392-0.449c0.286,0,0.558,0.039,0.813,0.115s0.482,0.191,0.679,0.344
		c0.196,0.153,0.353,0.345,0.469,0.574s0.175,0.497,0.175,0.803c0,0.273-0.042,0.522-0.125,0.749
		c-0.083,0.226-0.191,0.438-0.324,0.639c-0.133,0.199-0.284,0.389-0.454,0.568c-0.169,0.18-0.344,0.356-0.523,0.529l-2.226,2.205
		h3.712V288.298z"/>
	<path d="M170.008,286.981l2.385-5.747h1.098v7.064h-0.719v-6.106h-0.02l-2.555,6.106h-0.379l-2.555-6.106h-0.02v6.106h-0.719
		v-7.064h1.098L170.008,286.981z"/>
	<path d="M176.938,284.118c0,0.14-0.05,0.265-0.149,0.374s-0.229,0.165-0.39,0.165c-0.159,0-0.289-0.056-0.389-0.165
		s-0.15-0.234-0.15-0.374s0.051-0.265,0.15-0.374c0.1-0.11,0.229-0.165,0.389-0.165c0.16,0,0.29,0.055,0.39,0.165
		C176.888,283.853,176.938,283.978,176.938,284.118z M176.938,287.82c0,0.14-0.05,0.264-0.149,0.374
		c-0.1,0.109-0.229,0.164-0.39,0.164c-0.159,0-0.289-0.055-0.389-0.164c-0.1-0.11-0.15-0.234-0.15-0.374s0.051-0.265,0.15-0.375
		c0.1-0.109,0.229-0.164,0.389-0.164c0.16,0,0.29,0.055,0.39,0.164C176.888,287.555,176.938,287.68,176.938,287.82z"/>
	<path d="M181.182,288.298h-0.719v-6.166l-1.268,1.117l-0.448-0.539l1.796-1.477h0.639V288.298z"/>
	<path d="M186.371,281.114c0.506,0,0.915,0.117,1.228,0.35c0.313,0.233,0.556,0.529,0.729,0.888c0.173,0.359,0.289,0.754,0.35,1.183
		c0.06,0.429,0.09,0.84,0.09,1.232s-0.03,0.804-0.09,1.232c-0.061,0.429-0.177,0.823-0.35,1.183
		c-0.173,0.358-0.416,0.655-0.729,0.888s-0.722,0.35-1.228,0.35c-0.505,0-0.914-0.117-1.227-0.35
		c-0.313-0.232-0.556-0.529-0.729-0.888c-0.173-0.359-0.289-0.754-0.35-1.183c-0.06-0.429-0.09-0.84-0.09-1.232
		s0.03-0.804,0.09-1.232c0.061-0.429,0.177-0.823,0.35-1.183c0.173-0.358,0.415-0.654,0.729-0.888
		C185.457,281.231,185.866,281.114,186.371,281.114z M186.371,281.773c-0.386,0-0.689,0.103-0.912,0.309
		c-0.224,0.207-0.392,0.463-0.504,0.769c-0.113,0.307-0.185,0.632-0.215,0.979c-0.03,0.346-0.045,0.658-0.045,0.938
		s0.015,0.592,0.045,0.938c0.03,0.347,0.102,0.673,0.215,0.979c0.112,0.306,0.28,0.562,0.504,0.769
		c0.223,0.206,0.526,0.309,0.912,0.309s0.69-0.103,0.913-0.309c0.224-0.207,0.391-0.463,0.504-0.769s0.185-0.632,0.215-0.979
		c0.03-0.346,0.045-0.658,0.045-0.938s-0.015-0.592-0.045-0.938c-0.03-0.347-0.102-0.672-0.215-0.979
		c-0.113-0.306-0.28-0.562-0.504-0.769C187.061,281.875,186.756,281.773,186.371,281.773z"/>
	<path d="M196.538,288.298h-0.718v-3.043l-2.645-4.021h0.898l2.104,3.333l2.105-3.333h0.898l-2.645,4.021V288.298z"/>
	<path d="M201.081,284.118c0,0.14-0.05,0.265-0.149,0.374s-0.23,0.165-0.39,0.165c-0.159,0-0.289-0.056-0.389-0.165
		s-0.15-0.234-0.15-0.374s0.051-0.265,0.15-0.374c0.1-0.11,0.229-0.165,0.389-0.165c0.16,0,0.29,0.055,0.39,0.165
		C201.031,283.853,201.081,283.978,201.081,284.118z M201.081,287.82c0,0.14-0.05,0.264-0.149,0.374
		c-0.1,0.109-0.23,0.164-0.39,0.164c-0.159,0-0.289-0.055-0.389-0.164c-0.1-0.11-0.15-0.234-0.15-0.374s0.051-0.265,0.15-0.375
		c0.1-0.109,0.229-0.164,0.389-0.164c0.16,0,0.29,0.055,0.39,0.164C201.031,287.555,201.081,287.68,201.081,287.82z"/>
	<path d="M204.308,284.537c-0.152-0.053-0.294-0.131-0.424-0.234s-0.241-0.225-0.334-0.364c-0.094-0.14-0.166-0.293-0.22-0.459
		c-0.053-0.166-0.08-0.339-0.08-0.519c0-0.279,0.054-0.534,0.16-0.764s0.249-0.424,0.429-0.584c0.18-0.159,0.39-0.282,0.629-0.369
		c0.239-0.086,0.492-0.13,0.758-0.13c0.267,0,0.52,0.044,0.759,0.13c0.239,0.087,0.449,0.21,0.629,0.369
		c0.18,0.16,0.322,0.354,0.429,0.584s0.16,0.484,0.16,0.764c0,0.18-0.027,0.353-0.08,0.519c-0.054,0.166-0.127,0.319-0.22,0.459
		s-0.204,0.261-0.334,0.364s-0.271,0.182-0.425,0.234v0.02c0.399,0.106,0.719,0.326,0.958,0.659c0.24,0.332,0.359,0.731,0.359,1.197
		c0,0.306-0.062,0.582-0.185,0.828s-0.286,0.457-0.488,0.634c-0.203,0.176-0.439,0.311-0.709,0.404
		c-0.27,0.093-0.554,0.14-0.854,0.14c-0.299,0-0.583-0.047-0.853-0.14c-0.27-0.094-0.506-0.229-0.709-0.404
		c-0.202-0.177-0.365-0.388-0.488-0.634s-0.185-0.522-0.185-0.828c0-0.466,0.119-0.865,0.359-1.197
		c0.239-0.333,0.559-0.553,0.957-0.659V284.537z M206.744,286.313c0-0.206-0.037-0.397-0.11-0.574
		c-0.073-0.176-0.175-0.329-0.304-0.459c-0.13-0.13-0.29-0.23-0.479-0.304s-0.397-0.11-0.624-0.11c-0.232,0-0.442,0.037-0.628,0.11
		c-0.187,0.073-0.345,0.174-0.475,0.304c-0.129,0.13-0.23,0.283-0.304,0.459c-0.073,0.177-0.11,0.368-0.11,0.574
		s0.037,0.397,0.11,0.573c0.073,0.177,0.175,0.329,0.304,0.459c0.13,0.13,0.288,0.231,0.475,0.305
		c0.186,0.073,0.396,0.109,0.628,0.109c0.227,0,0.435-0.036,0.624-0.109s0.35-0.175,0.479-0.305c0.129-0.13,0.23-0.282,0.304-0.459
		C206.707,286.71,206.744,286.519,206.744,286.313z M206.484,283.02c0-0.18-0.032-0.346-0.095-0.499
		c-0.063-0.153-0.151-0.284-0.265-0.395c-0.113-0.109-0.246-0.195-0.399-0.259c-0.152-0.063-0.319-0.095-0.499-0.095
		c-0.179,0-0.346,0.031-0.498,0.095c-0.153,0.063-0.286,0.149-0.399,0.259c-0.113,0.11-0.201,0.241-0.265,0.395
		s-0.095,0.319-0.095,0.499s0.031,0.346,0.095,0.499s0.151,0.284,0.265,0.394c0.113,0.11,0.246,0.196,0.399,0.26
		c0.152,0.063,0.319,0.095,0.498,0.095c0.18,0,0.347-0.031,0.499-0.095c0.153-0.063,0.286-0.149,0.399-0.26
		c0.113-0.109,0.201-0.24,0.265-0.394C206.452,283.366,206.484,283.2,206.484,283.02z"/>
	<path d="M210.68,284.267l0.02,0.021c0.113-0.08,0.265-0.14,0.454-0.18s0.364-0.061,0.524-0.061c0.306,0,0.59,0.056,0.853,0.165
		s0.49,0.261,0.684,0.454c0.193,0.192,0.345,0.422,0.454,0.688c0.109,0.266,0.165,0.559,0.165,0.878c0,0.326-0.057,0.622-0.17,0.888
		c-0.113,0.267-0.273,0.496-0.479,0.688c-0.206,0.193-0.448,0.343-0.729,0.449c-0.279,0.106-0.585,0.16-0.918,0.16
		c-0.332,0-0.638-0.054-0.918-0.16c-0.279-0.106-0.521-0.256-0.728-0.449c-0.207-0.192-0.366-0.422-0.479-0.688
		c-0.113-0.266-0.17-0.562-0.17-0.888c0-0.393,0.059-0.735,0.175-1.027c0.116-0.293,0.261-0.582,0.435-0.868l1.905-3.104h0.849
		L210.68,284.267z M209.961,286.233c0,0.227,0.038,0.433,0.115,0.618c0.076,0.187,0.185,0.348,0.324,0.484s0.306,0.241,0.499,0.314
		c0.192,0.073,0.405,0.109,0.638,0.109c0.233,0,0.446-0.036,0.639-0.109c0.193-0.073,0.359-0.178,0.499-0.314
		s0.248-0.298,0.324-0.484c0.077-0.186,0.115-0.392,0.115-0.618s-0.038-0.433-0.115-0.619c-0.076-0.186-0.185-0.346-0.324-0.479
		s-0.306-0.237-0.499-0.314c-0.192-0.076-0.405-0.114-0.639-0.114c-0.232,0-0.445,0.038-0.638,0.114
		c-0.193,0.077-0.359,0.182-0.499,0.314s-0.248,0.293-0.324,0.479C210,285.8,209.961,286.006,209.961,286.233z"/>
	<path d="M220.159,284.297h0.01h0.09l3.322-3.063h1.028l-3.563,3.203l3.762,3.861h-1.058l-3.473-3.642h-0.109h-0.01v3.642h-0.719
		v-7.064h0.719V284.297z"/>
	<path d="M227.52,284.118c0,0.14-0.05,0.265-0.149,0.374s-0.229,0.165-0.39,0.165c-0.159,0-0.289-0.056-0.389-0.165
		s-0.15-0.234-0.15-0.374s0.051-0.265,0.15-0.374c0.1-0.11,0.229-0.165,0.389-0.165c0.16,0,0.29,0.055,0.39,0.165
		C227.47,283.853,227.52,283.978,227.52,284.118z M227.52,287.82c0,0.14-0.05,0.264-0.149,0.374c-0.1,0.109-0.229,0.164-0.39,0.164
		c-0.159,0-0.289-0.055-0.389-0.164c-0.1-0.11-0.15-0.234-0.15-0.374s0.051-0.265,0.15-0.375c0.1-0.109,0.229-0.164,0.389-0.164
		c0.16,0,0.29,0.055,0.39,0.164C227.47,287.555,227.52,287.68,227.52,287.82z"/>
	<path d="M231.826,281.114c0.506,0,0.915,0.117,1.228,0.35c0.313,0.233,0.556,0.529,0.729,0.888c0.173,0.359,0.289,0.754,0.35,1.183
		c0.06,0.429,0.09,0.84,0.09,1.232s-0.03,0.804-0.09,1.232c-0.061,0.429-0.177,0.823-0.35,1.183
		c-0.173,0.358-0.416,0.655-0.729,0.888s-0.722,0.35-1.228,0.35c-0.505,0-0.914-0.117-1.227-0.35
		c-0.313-0.232-0.556-0.529-0.729-0.888c-0.173-0.359-0.289-0.754-0.35-1.183c-0.06-0.429-0.09-0.84-0.09-1.232
		s0.03-0.804,0.09-1.232c0.061-0.429,0.177-0.823,0.35-1.183c0.173-0.358,0.415-0.654,0.729-0.888
		C230.912,281.231,231.321,281.114,231.826,281.114z M231.826,281.773c-0.386,0-0.689,0.103-0.912,0.309
		c-0.224,0.207-0.392,0.463-0.504,0.769c-0.113,0.307-0.185,0.632-0.215,0.979c-0.03,0.346-0.045,0.658-0.045,0.938
		s0.015,0.592,0.045,0.938c0.03,0.347,0.102,0.673,0.215,0.979c0.112,0.306,0.28,0.562,0.504,0.769
		c0.223,0.206,0.526,0.309,0.912,0.309s0.69-0.103,0.913-0.309c0.224-0.207,0.391-0.463,0.504-0.769s0.185-0.632,0.215-0.979
		c0.03-0.346,0.045-0.658,0.045-0.938s-0.015-0.592-0.045-0.938c-0.03-0.347-0.102-0.672-0.215-0.979
		c-0.113-0.306-0.28-0.562-0.504-0.769C232.516,281.875,232.211,281.773,231.826,281.773z"/>
	<path d="M145.766,297.207h2.056c0.718,0,1.285,0.156,1.701,0.469c0.415,0.313,0.623,0.785,0.623,1.417s-0.208,1.106-0.623,1.422
		c-0.416,0.316-0.983,0.474-1.701,0.474h-1.337v3.283h-0.719V297.207z M146.485,300.331h1.157c0.319,0,0.59-0.033,0.813-0.1
		c0.223-0.066,0.4-0.154,0.533-0.265c0.133-0.109,0.229-0.239,0.289-0.389c0.061-0.15,0.09-0.312,0.09-0.484
		c0-0.166-0.029-0.324-0.09-0.474c-0.06-0.149-0.156-0.281-0.289-0.395s-0.311-0.201-0.533-0.265
		c-0.224-0.063-0.494-0.095-0.813-0.095h-1.157V300.331z"/>
	<path d="M154.891,301.409v-0.12c0-0.805-0.399-1.207-1.197-1.207c-0.546,0-1.021,0.183-1.427,0.549l-0.399-0.47
		c0.439-0.452,1.098-0.678,1.976-0.678c0.227,0,0.444,0.033,0.653,0.1c0.21,0.066,0.391,0.168,0.544,0.304
		c0.153,0.137,0.276,0.309,0.369,0.515c0.094,0.206,0.14,0.452,0.14,0.738v2.085c0,0.18,0.009,0.368,0.025,0.563
		c0.017,0.196,0.035,0.358,0.055,0.484h-0.639c-0.02-0.113-0.035-0.236-0.045-0.369s-0.015-0.263-0.015-0.39h-0.021
		c-0.192,0.313-0.421,0.538-0.684,0.674c-0.263,0.137-0.583,0.205-0.963,0.205c-0.206,0-0.405-0.028-0.599-0.085
		c-0.192-0.057-0.364-0.144-0.514-0.26s-0.27-0.26-0.359-0.429c-0.09-0.17-0.135-0.368-0.135-0.594c0-0.379,0.099-0.677,0.295-0.894
		c0.196-0.216,0.442-0.377,0.738-0.483s0.612-0.173,0.948-0.2c0.336-0.026,0.644-0.039,0.923-0.039H154.891z M154.552,301.947
		c-0.167,0-0.375,0.009-0.624,0.025c-0.25,0.017-0.489,0.057-0.719,0.119c-0.229,0.063-0.426,0.162-0.589,0.295
		s-0.244,0.315-0.244,0.549c0,0.153,0.031,0.284,0.095,0.394c0.063,0.11,0.148,0.2,0.255,0.27c0.106,0.07,0.225,0.12,0.354,0.15
		c0.13,0.029,0.262,0.045,0.395,0.045c0.239,0,0.447-0.04,0.624-0.12c0.176-0.08,0.324-0.188,0.443-0.324
		c0.12-0.137,0.208-0.296,0.265-0.479c0.057-0.183,0.085-0.377,0.085-0.583v-0.34H154.552z"/>
	<path d="M158.466,299.602c0.014,0.127,0.021,0.251,0.025,0.374c0.003,0.123,0.005,0.248,0.005,0.375h0.02
		c0.073-0.127,0.167-0.243,0.28-0.35c0.112-0.106,0.239-0.198,0.379-0.274s0.287-0.137,0.443-0.18s0.312-0.064,0.465-0.064
		c0.599,0,1.041,0.157,1.327,0.474c0.285,0.316,0.429,0.767,0.429,1.352v2.964h-0.658v-2.584c0-0.52-0.09-0.917-0.27-1.192
		c-0.18-0.276-0.513-0.414-0.998-0.414c-0.033,0-0.127,0.013-0.279,0.04c-0.153,0.026-0.314,0.1-0.484,0.219
		c-0.169,0.12-0.32,0.3-0.454,0.539c-0.133,0.239-0.199,0.572-0.199,0.998v2.395h-0.658v-3.642c0-0.127-0.005-0.286-0.016-0.479
		c-0.01-0.192-0.021-0.376-0.034-0.549H158.466z"/>
	<path d="M166.505,300.201h-1.347v2.754c0,0.173,0.017,0.314,0.05,0.425c0.033,0.109,0.08,0.194,0.14,0.254s0.131,0.102,0.215,0.125
		c0.083,0.023,0.175,0.035,0.274,0.035c0.112,0,0.229-0.017,0.349-0.051c0.12-0.033,0.229-0.076,0.33-0.129l0.029,0.608
		c-0.246,0.113-0.542,0.17-0.888,0.17c-0.127,0-0.258-0.017-0.395-0.05c-0.136-0.034-0.261-0.097-0.374-0.19
		c-0.113-0.093-0.206-0.219-0.279-0.379c-0.073-0.159-0.109-0.369-0.109-0.629v-2.943h-0.988v-0.599h0.988v-1.317h0.658v1.317h1.347
		V300.201z"/>
	<path d="M172.822,301.937c0,0.353-0.063,0.679-0.185,0.978c-0.124,0.3-0.295,0.56-0.515,0.778c-0.219,0.22-0.48,0.392-0.783,0.515
		s-0.637,0.185-1.003,0.185c-0.358,0-0.689-0.062-0.992-0.185s-0.564-0.295-0.783-0.515c-0.22-0.219-0.392-0.479-0.515-0.778
		c-0.123-0.299-0.185-0.625-0.185-0.978s0.062-0.679,0.185-0.978c0.123-0.3,0.295-0.559,0.515-0.778
		c0.219-0.22,0.48-0.391,0.783-0.514s0.634-0.185,0.992-0.185c0.366,0,0.7,0.062,1.003,0.185s0.564,0.294,0.783,0.514
		c0.22,0.22,0.391,0.479,0.515,0.778C172.759,301.258,172.822,301.584,172.822,301.937z M172.103,301.937
		c0-0.26-0.042-0.502-0.125-0.729c-0.083-0.226-0.201-0.422-0.354-0.589c-0.152-0.166-0.337-0.297-0.554-0.394
		c-0.216-0.097-0.46-0.145-0.733-0.145c-0.272,0-0.517,0.048-0.733,0.145c-0.216,0.097-0.398,0.228-0.549,0.394
		c-0.149,0.167-0.266,0.363-0.349,0.589c-0.083,0.227-0.125,0.469-0.125,0.729s0.042,0.502,0.125,0.729s0.199,0.423,0.349,0.589
		c0.15,0.166,0.333,0.298,0.549,0.394c0.217,0.097,0.461,0.146,0.733,0.146c0.273,0,0.518-0.049,0.733-0.146
		c0.217-0.096,0.401-0.228,0.554-0.394c0.153-0.166,0.271-0.362,0.354-0.589S172.103,302.197,172.103,301.937z"/>
	<path d="M175.443,299.602c0.014,0.127,0.021,0.251,0.025,0.374c0.003,0.123,0.005,0.248,0.005,0.375h0.02
		c0.073-0.127,0.167-0.243,0.28-0.35c0.112-0.106,0.239-0.198,0.379-0.274s0.287-0.137,0.443-0.18s0.312-0.064,0.465-0.064
		c0.599,0,1.041,0.157,1.327,0.474c0.285,0.316,0.429,0.767,0.429,1.352v2.964h-0.658v-2.584c0-0.52-0.09-0.917-0.27-1.192
		c-0.18-0.276-0.513-0.414-0.998-0.414c-0.033,0-0.127,0.013-0.279,0.04c-0.153,0.026-0.314,0.1-0.484,0.219
		c-0.169,0.12-0.32,0.3-0.454,0.539c-0.133,0.239-0.199,0.572-0.199,0.998v2.395h-0.658v-3.642c0-0.127-0.005-0.286-0.016-0.479
		c-0.01-0.192-0.021-0.376-0.034-0.549H175.443z"/>
	<path d="M181.561,302.117c0.02,0.233,0.076,0.452,0.169,0.658c0.094,0.207,0.217,0.385,0.369,0.534
		c0.153,0.149,0.33,0.268,0.529,0.354c0.199,0.086,0.416,0.13,0.648,0.13c0.353,0,0.657-0.082,0.913-0.245s0.45-0.351,0.584-0.563
		l0.509,0.419c-0.279,0.353-0.587,0.605-0.923,0.759c-0.336,0.152-0.697,0.229-1.083,0.229c-0.346,0-0.667-0.062-0.963-0.185
		s-0.551-0.295-0.764-0.515c-0.213-0.219-0.381-0.479-0.504-0.778c-0.123-0.299-0.185-0.625-0.185-0.978s0.061-0.679,0.18-0.978
		c0.12-0.3,0.286-0.559,0.499-0.778s0.463-0.391,0.749-0.514c0.285-0.123,0.595-0.185,0.928-0.185c0.353,0,0.668,0.063,0.947,0.189
		c0.28,0.126,0.515,0.294,0.704,0.504c0.189,0.209,0.334,0.455,0.434,0.738c0.1,0.282,0.15,0.584,0.15,0.902v0.3H181.561z
		 M184.734,301.578c0-0.445-0.134-0.807-0.399-1.082c-0.266-0.276-0.639-0.414-1.117-0.414c-0.213,0-0.419,0.041-0.619,0.124
		c-0.199,0.084-0.374,0.195-0.523,0.335s-0.27,0.299-0.359,0.479s-0.135,0.366-0.135,0.559H184.734z"/>
	<path d="M188.371,300.091c0,0.14-0.05,0.265-0.149,0.374s-0.229,0.165-0.39,0.165c-0.159,0-0.289-0.056-0.389-0.165
		s-0.15-0.234-0.15-0.374s0.051-0.265,0.15-0.374c0.1-0.11,0.229-0.165,0.389-0.165c0.16,0,0.29,0.055,0.39,0.165
		C188.321,299.827,188.371,299.952,188.371,300.091z M188.371,303.793c0,0.14-0.05,0.264-0.149,0.374
		c-0.1,0.109-0.229,0.164-0.39,0.164c-0.159,0-0.289-0.055-0.389-0.164c-0.1-0.11-0.15-0.234-0.15-0.374s0.051-0.265,0.15-0.375
		c0.1-0.109,0.229-0.164,0.389-0.164c0.16,0,0.29,0.055,0.39,0.164C188.321,303.529,188.371,303.654,188.371,303.793z"/>
	<path d="M196.861,304.272h-0.719v-6.166l-1.268,1.117l-0.448-0.539l1.796-1.477h0.639V304.272z"/>
	<path d="M202.161,304.272h-0.719v-6.166l-1.268,1.117l-0.448-0.539l1.796-1.477h0.639V304.272z"/>
	<path d="M208.456,301.937h1.019v0.658h-1.019v1.677h-0.718v-1.677h-3.054v-0.817l2.854-4.57h0.918V301.937z M207.738,297.926
		h-0.021l-2.435,4.011h2.455V297.926z"/>
	<path d="M217.407,303.155c-0.12,0.18-0.269,0.349-0.444,0.509c-0.177,0.159-0.378,0.298-0.604,0.414
		c-0.227,0.116-0.471,0.208-0.733,0.274s-0.541,0.1-0.833,0.1c-0.525,0-1.013-0.094-1.462-0.279
		c-0.449-0.187-0.838-0.444-1.168-0.773c-0.329-0.329-0.587-0.72-0.772-1.173c-0.187-0.452-0.28-0.947-0.28-1.486
		s0.094-1.034,0.28-1.486c0.186-0.453,0.443-0.844,0.772-1.173c0.33-0.329,0.719-0.587,1.168-0.773
		c0.449-0.186,0.937-0.279,1.462-0.279c0.438,0,0.878,0.087,1.316,0.26c0.439,0.173,0.815,0.459,1.128,0.857l-0.629,0.47
		c-0.073-0.113-0.173-0.227-0.299-0.34c-0.127-0.112-0.271-0.213-0.435-0.299c-0.163-0.087-0.337-0.156-0.523-0.21
		c-0.187-0.053-0.373-0.08-0.559-0.08c-0.453,0-0.858,0.084-1.218,0.25s-0.663,0.389-0.913,0.668
		c-0.249,0.28-0.44,0.604-0.573,0.974c-0.134,0.369-0.2,0.757-0.2,1.162c0,0.406,0.066,0.793,0.2,1.162
		c0.133,0.369,0.324,0.693,0.573,0.974c0.25,0.279,0.554,0.502,0.913,0.668s0.765,0.25,1.218,0.25c0.186,0,0.37-0.017,0.554-0.051
		c0.183-0.033,0.362-0.089,0.539-0.169c0.176-0.08,0.342-0.188,0.498-0.324c0.156-0.137,0.302-0.308,0.435-0.514L217.407,303.155z"
		/>
</g>
<g>
	<polygon fill="#00A22E" points="134.689,78.746 115.001,68.671 115.039,48.398 134.727,58.473 	"/>
	<polygon fill="#00A22E" points="115.039,48.345 74.025,27.349 34.826,60.122 34.826,60.123 34.826,60.123 34.745,105.283 
		75.762,126.274 75.842,81.114 	"/>
</g>
<g>
	<path fill="#00A22E" d="M93.699,84.308l16.216,0.029c2.13,0.004,4.151,0.214,6.064,0.633c1.913,0.417,3.588,1.11,5.027,2.08
		c1.438,0.97,2.579,2.273,3.426,3.911c0.845,1.64,1.266,3.682,1.262,6.128c-0.006,2.959-0.779,5.474-2.322,7.542
		c-1.542,2.068-3.793,3.376-6.754,3.924l10.622,17.714l-11.067-0.02l-8.729-16.765l-4.558-0.008l-0.029,16.749l-9.232-0.017
		L93.699,84.308z M102.9,101.665l5.445,0.01c0.828,0.002,1.706-0.026,2.633-0.084c0.927-0.059,1.767-0.233,2.517-0.528
		c0.75-0.294,1.372-0.757,1.867-1.388c0.493-0.629,0.742-1.517,0.744-2.662c0.002-1.065-0.214-1.913-0.646-2.546
		c-0.434-0.631-0.984-1.116-1.654-1.452c-0.671-0.336-1.44-0.565-2.307-0.685c-0.869-0.121-1.717-0.181-2.545-0.183l-6.037-0.011
		L102.9,101.665z"/>
	<path fill="#00A22E" d="M158.496,121.353c-1.424,1.813-3.222,3.211-5.393,4.192c-2.172,0.982-4.422,1.472-6.75,1.468
		c-2.21-0.004-4.289-0.362-6.241-1.076s-3.647-1.732-5.085-3.058c-1.438-1.323-2.568-2.913-3.395-4.77
		c-0.825-1.855-1.235-3.928-1.231-6.216s0.422-4.358,1.254-6.213c0.832-1.852,1.969-3.438,3.411-4.758
		c1.442-1.318,3.141-2.332,5.096-3.038c1.954-0.708,4.035-1.059,6.245-1.055c2.052,0.004,3.915,0.361,5.591,1.075
		c1.676,0.713,3.095,1.732,4.256,3.056c1.161,1.324,2.056,2.914,2.685,4.769c0.627,1.856,0.939,3.928,0.936,6.216l-0.005,2.781
		l-20.595-0.036c0.352,1.697,1.119,3.05,2.301,4.058s2.64,1.515,4.377,1.518c1.459,0.003,2.693-0.321,3.7-0.97
		c1.008-0.649,1.887-1.486,2.638-2.511L158.496,121.353z M151.002,108.674c0.041-1.499-0.449-2.781-1.473-3.849
		c-1.024-1.067-2.346-1.603-3.963-1.605c-0.986-0.001-1.855,0.155-2.604,0.47c-0.751,0.314-1.393,0.717-1.926,1.209
		c-0.533,0.493-0.949,1.064-1.246,1.715c-0.297,0.649-0.467,1.33-0.506,2.04L151.002,108.674z"/>
	<path fill="#00A22E" d="M183.616,106.069c-1.299-1.619-3.014-2.431-5.145-2.435c-0.749-0.001-1.479,0.174-2.19,0.528
		s-1.066,0.965-1.068,1.833c-0.001,0.71,0.362,1.234,1.093,1.57c0.729,0.337,1.655,0.634,2.779,0.893s2.327,0.536,3.609,0.835
		c1.281,0.298,2.483,0.764,3.607,1.396c1.123,0.634,2.048,1.494,2.776,2.58c0.728,1.087,1.091,2.537,1.088,4.352
		c-0.004,1.854-0.411,3.384-1.222,4.585c-0.812,1.202-1.849,2.167-3.112,2.895c-1.265,0.728-2.686,1.238-4.264,1.531
		c-1.579,0.293-3.138,0.438-4.677,0.435c-2.012-0.003-4.044-0.293-6.094-0.869c-2.051-0.574-3.785-1.594-5.203-3.057l5.396-5.967
		c0.826,1.027,1.743,1.808,2.748,2.342s2.178,0.804,3.52,0.806c1.026,0.002,1.953-0.145,2.782-0.439
		c0.829-0.294,1.244-0.836,1.246-1.626c0.001-0.749-0.363-1.311-1.092-1.688c-0.729-0.375-1.656-0.692-2.78-0.951
		c-1.123-0.259-2.327-0.537-3.608-0.835c-1.282-0.299-2.484-0.744-3.607-1.338c-1.124-0.594-2.05-1.434-2.777-2.521
		c-0.729-1.086-1.091-2.537-1.088-4.352c0.004-1.696,0.352-3.155,1.044-4.378c0.692-1.222,1.602-2.226,2.728-3.014
		c1.126-0.786,2.419-1.366,3.88-1.738c1.46-0.372,2.939-0.558,4.439-0.555c1.895,0.003,3.807,0.283,5.739,0.838
		c1.932,0.558,3.567,1.546,4.907,2.968L183.616,106.069z"/>
	<path fill="#00A22E" d="M195.806,90.765c0.002-1.338,0.478-2.48,1.427-3.426c0.95-0.946,2.094-1.418,3.432-1.416
		c1.339,0.003,2.48,0.479,3.426,1.428c0.946,0.949,1.419,2.094,1.416,3.432c-0.002,1.338-0.479,2.479-1.428,3.426
		s-2.093,1.419-3.432,1.416c-1.338-0.002-2.479-0.479-3.426-1.428C196.275,93.247,195.803,92.103,195.806,90.765z M196.459,99.297
		l8.363,0.015l-0.048,27.095l-8.363-0.015L196.459,99.297z"/>
	<path fill="#FFD424" d="M240.79,126.47l-7.693-0.014l0.006-3.568h-0.111c-0.335,0.482-0.773,0.975-1.313,1.476
		c-0.54,0.501-1.173,0.954-1.898,1.362s-1.525,0.74-2.398,0.999c-0.875,0.258-1.776,0.388-2.705,0.386
		c-2.007-0.004-3.828-0.351-5.462-1.041c-1.635-0.69-3.035-1.658-4.204-2.907c-1.169-1.246-2.067-2.725-2.696-4.437
		c-0.629-1.71-0.941-3.588-0.938-5.632c0.003-1.896,0.294-3.708,0.874-5.436c0.578-1.727,1.399-3.258,2.461-4.594
		c1.062-1.337,2.354-2.402,3.88-3.199c1.525-0.796,3.254-1.193,5.188-1.19c1.746,0.003,3.372,0.276,4.877,0.817
		c1.504,0.542,2.737,1.464,3.703,2.767h0.111l0.031-17.952l8.363,0.015L240.79,126.47z M233.12,112.909
		c0.004-2.043-0.579-3.698-1.747-4.965c-1.169-1.265-2.813-1.9-4.931-1.904s-3.765,0.626-4.938,1.887
		c-1.173,1.263-1.762,2.916-1.765,4.959c-0.004,2.045,0.578,3.7,1.747,4.965c1.169,1.267,2.813,1.9,4.931,1.904
		s3.765-0.624,4.938-1.887C232.528,116.607,233.116,114.954,233.12,112.909z"/>
	<path fill="#FFD424" d="M247.392,112.934c0.004-2.155,0.397-4.105,1.181-5.852c0.783-1.745,1.854-3.238,3.214-4.482
		c1.359-1.243,2.958-2.197,4.8-2.862c1.841-0.666,3.801-0.997,5.884-0.994c2.081,0.004,4.041,0.343,5.88,1.015
		s3.435,1.632,4.79,2.88c1.354,1.248,2.42,2.745,3.198,4.493c0.776,1.749,1.163,3.701,1.159,5.856
		c-0.004,2.156-0.396,4.106-1.181,5.852c-0.784,1.746-1.855,3.24-3.214,4.482c-1.359,1.243-2.959,2.196-4.8,2.862
		c-1.841,0.667-3.803,0.997-5.884,0.993c-2.082-0.003-4.041-0.341-5.88-1.014s-3.435-1.632-4.789-2.88
		c-1.355-1.246-2.421-2.744-3.198-4.493C247.775,117.042,247.388,115.09,247.392,112.934z M255.755,112.949
		c-0.004,2.045,0.578,3.7,1.747,4.965c1.168,1.268,2.812,1.9,4.931,1.904s3.765-0.624,4.938-1.887
		c1.173-1.261,1.761-2.914,1.765-4.959c0.004-2.043-0.578-3.698-1.747-4.965c-1.169-1.265-2.813-1.9-4.932-1.904
		c-2.118-0.004-3.764,0.627-4.937,1.887C256.346,109.252,255.758,110.906,255.755,112.949z"/>
	<path fill="#FFD424" d="M284.101,99.453l8.028,0.014l-0.007,3.679h0.111c0.261-0.519,0.634-1.039,1.118-1.559
		c0.483-0.52,1.06-0.982,1.729-1.391c0.67-0.407,1.433-0.74,2.288-0.999c0.854-0.259,1.785-0.388,2.789-0.386
		c2.118,0.003,3.826,0.333,5.127,0.984c1.3,0.653,2.311,1.557,3.033,2.709c0.723,1.154,1.213,2.512,1.471,4.073
		c0.257,1.562,0.385,3.254,0.381,5.074l-0.026,14.941l-8.363-0.015l0.023-13.269c0.002-0.781-0.024-1.589-0.078-2.426
		c-0.056-0.837-0.221-1.607-0.498-2.314c-0.278-0.706-0.705-1.284-1.279-1.731c-0.576-0.446-1.402-0.671-2.48-0.673
		s-1.951,0.191-2.621,0.581c-0.669,0.389-1.182,0.909-1.536,1.558c-0.354,0.651-0.587,1.385-0.701,2.201
		c-0.112,0.818-0.17,1.673-0.171,2.564l-0.024,13.492l-8.362-0.015L284.101,99.453z"/>
</g>
<g>
	<g>
		<polygon fill="#00A22E" points="-75.496,78.746 -95.184,68.671 -95.145,48.398 -75.457,58.473 		"/>
		<polygon fill="#00A22E" points="-95.145,48.345 -136.159,27.349 -175.359,60.122 -175.359,60.123 -175.359,60.123 
			-175.439,105.283 -134.422,126.274 -134.342,81.114 		"/>
	</g>
	<g>
		<path fill="#00A22E" d="M-116.486,84.308l16.216,0.029c2.13,0.004,4.151,0.214,6.065,0.633c1.913,0.417,3.587,1.11,5.027,2.08
			c1.438,0.97,2.58,2.273,3.426,3.911c0.845,1.64,1.266,3.682,1.262,6.128c-0.005,2.959-0.779,5.474-2.322,7.542
			c-1.542,2.068-3.793,3.376-6.754,3.924l10.622,17.714l-11.067-0.02l-8.729-16.765l-4.557-0.008l-0.03,16.749l-9.232-0.017
			L-116.486,84.308z M-107.284,101.665l5.445,0.01c0.829,0.002,1.706-0.026,2.633-0.084c0.927-0.059,1.766-0.233,2.517-0.528
			c0.75-0.294,1.372-0.757,1.867-1.388c0.494-0.629,0.743-1.517,0.745-2.662c0.002-1.065-0.214-1.913-0.647-2.546
			c-0.434-0.631-0.984-1.116-1.654-1.452c-0.671-0.336-1.44-0.565-2.307-0.685c-0.869-0.121-1.716-0.181-2.545-0.183l-6.037-0.011
			L-107.284,101.665z"/>
	</g>
</g>
</svg>
