<?xml version="1.0" encoding="utf-8"?>
<!-- Generator: Adobe Illustrator 17.0.0, SVG Export Plug-In . SVG Version: 6.00 Build 0)  -->
<!DOCTYPE svg PUBLIC "-//W3C//DTD SVG 1.1//EN" "http://www.w3.org/Graphics/SVG/1.1/DTD/svg11.dtd">
<svg version="1.1" id="Layer_1" xmlns="http://www.w3.org/2000/svg" xmlns:xlink="http://www.w3.org/1999/xlink" x="0px" y="0px"
	 width="176px" height="176px" viewBox="0 0 176 176" enable-background="new 0 0 176 176" xml:space="preserve">
<g>
	<g>
		<path fill="#F52121" d="M88.406,119.3c0.006-3.503,0.598-6.676,1.778-9.517c1.18-2.842,2.823-5.26,4.928-7.256
			c2.106-1.995,4.601-3.526,7.489-4.592c2.887-1.066,6.04-1.597,9.462-1.591c3.42,0.006,6.572,0.548,9.456,1.625
			c2.882,1.077,5.374,2.616,7.472,4.619c2.098,2.003,3.733,4.427,4.902,7.273c1.17,2.846,1.752,6.021,1.746,9.524
			c-0.007,3.503-0.599,6.676-1.779,9.517c-1.179,2.841-2.823,5.26-4.928,7.255c-2.105,1.995-4.602,3.526-7.489,4.593
			c-2.887,1.066-6.041,1.596-9.461,1.59c-3.422-0.006-6.574-0.548-9.457-1.624c-2.883-1.077-5.373-2.616-7.472-4.619
			c-2.098-2.003-3.732-4.427-4.902-7.273C88.981,125.977,88.399,122.804,88.406,119.3z M98.421,119.318
			c-0.004,2.061,0.311,3.947,0.948,5.658c0.636,1.712,1.55,3.197,2.744,4.456c1.193,1.26,2.623,2.241,4.291,2.944
			c1.668,0.704,3.532,1.057,5.594,1.061c2.06,0.004,3.926-0.343,5.596-1.041c1.67-0.697,3.104-1.673,4.302-2.929
			c1.197-1.255,2.116-2.736,2.759-4.446c0.641-1.709,0.964-3.594,0.968-5.655c0.004-2.019-0.312-3.895-0.948-5.628
			c-0.636-1.732-1.55-3.227-2.742-4.487c-1.194-1.259-2.624-2.239-4.292-2.944c-1.669-0.703-3.533-1.057-5.593-1.061
			c-2.061-0.004-3.927,0.344-5.597,1.042c-1.67,0.698-3.104,1.674-4.301,2.929c-1.199,1.256-2.118,2.747-2.76,4.477
			C98.746,115.424,98.424,117.299,98.421,119.318z"/>
	</g>
	<g>
		<polygon fill="#F52121" points="74.174,142.331 31.328,120.404 31.412,73.23 74.258,95.157 		"/>
		<polygon fill="#F52121" points="135.729,92.684 115.163,82.159 115.203,60.982 135.769,71.507 		"/>
		<polygon fill="#F52121" points="74.258,95.157 31.412,73.229 72.36,38.994 115.203,60.927 		"/>
	</g>
</g>
<rect x="93.333" y="281.277" fill="#F52121" width="35.445" height="35.445"/>
<text transform="matrix(1 0 0 1 149.0435 286.1803)"><tspan x="0" y="0" font-family="'Avenir-Book'" font-size="9.9781">R:245 G:33 B:33</tspan><tspan x="0" y="15.974" font-family="'Avenir-Book'" font-size="9.9781">C:0 M:97 Y:98 K:0</tspan><tspan x="0" y="31.947" font-family="'Avenir-Book'" font-size="9.9781">Pantone: 1788C</tspan></text>
</svg>
