<?xml version="1.0" encoding="utf-8"?>
<!-- Generator: Adobe Illustrator 17.0.0, SVG Export Plug-In . SVG Version: 6.00 Build 0)  -->
<!DOCTYPE svg PUBLIC "-//W3C//DTD SVG 1.1//EN" "http://www.w3.org/Graphics/SVG/1.1/DTD/svg11.dtd">
<svg version="1.1" id="Layer_1" xmlns="http://www.w3.org/2000/svg" xmlns:xlink="http://www.w3.org/1999/xlink" x="0px" y="0px"
	 width="182px" height="152px" viewBox="0 0 182 152" enable-background="new 0 0 182 152" xml:space="preserve">
<g>
	<g>
		<polygon fill="#00A22E" points="146.74,80.935 127.052,70.86 127.091,50.587 146.779,60.662 		"/>
		<polygon fill="#00A22E" points="127.091,50.534 86.076,29.538 46.877,62.311 46.877,62.312 46.877,62.312 46.797,107.472 
			87.813,128.463 87.894,83.303 		"/>
	</g>
	<g>
		<path fill="#00A22E" d="M105.75,86.497l16.216,0.029c2.13,0.004,4.151,0.214,6.065,0.633c1.913,0.417,3.587,1.11,5.027,2.08
			c1.438,0.97,2.58,2.273,3.426,3.911c0.845,1.64,1.266,3.682,1.262,6.128c-0.005,2.959-0.779,5.474-2.322,7.542
			c-1.542,2.068-3.793,3.376-6.754,3.924l10.622,17.714l-11.067-0.02l-8.729-16.765l-4.557-0.008l-0.03,16.749l-9.232-0.017
			L105.75,86.497z M114.952,103.854l5.445,0.01c0.829,0.002,1.706-0.026,2.633-0.084c0.927-0.059,1.766-0.233,2.517-0.528
			c0.75-0.294,1.372-0.757,1.867-1.388c0.494-0.629,0.743-1.517,0.745-2.662c0.002-1.065-0.214-1.913-0.647-2.546
			c-0.434-0.631-0.984-1.116-1.654-1.452c-0.671-0.336-1.44-0.565-2.307-0.685c-0.869-0.121-1.716-0.181-2.545-0.183l-6.037-0.011
			L114.952,103.854z"/>
	</g>
</g>
</svg>
